<svg xmlns="http://www.w3.org/2000/svg" width="400" height="1188.4">
  <g fill-rule="evenodd">
    <path fill="#080808" d="M0 594.8v594.8h400V0H0v594.8M360.3 35.4c.9 1 1 86.6.2 87.6-.5.6-3.2.8-15.9 1.1-17.4.5-19 .5-25.1 1.2-2.5.3-7.1.5-10.3.6-4.4 0-5.9.2-6.3.7-.8 1-.6 13.4.2 14.2.4.3 8.8.7 24.8 1 13.4.2 25.2.7 26.3 1 1 .2 2.7.4 3.7.4 3.2 0 3-2.6 3.2 37.8.2 45 0 46.6-3.3 43a61.8 61.8 0 0 0-9.8-7.9 11 11 0 0 0-2.8-1.5c-.3 0-1.1-.4-1.8-.9-.6-.5-1.8-1-2.6-1.3a34.1 34.1 0 0 0-10.4-2.7 66.8 66.8 0 0 0-15.5-2c-4.9-.3-10.3-.8-12-1.3-1.8-.4-6-.8-9.5-1a92 92 0 0 1-10.9-1.2c-2.6-.5-7.8-1-11.6-1.2-3.8-.2-8.1-.7-9.6-1-1.4-.5-6.3-1-10.9-1.2-4.5-.3-8.8-.7-9.5-1-1.8-.6-4.8-1-13.7-1.5-4.5-.3-8.7-.8-9.4-1-.8-.3-5.6-.9-10.8-1.3-5.2-.3-10.2-.9-11.2-1.2-.9-.2-5.6-.7-10.4-1a77 77 0 0 1-11-1.3c-1.4-.4-6.2-1-10.7-1.2a82 82 0 0 1-11-1.2c-1.5-.4-4.2-.8-6-.8-4 0-16-1.2-16.9-1.7-.3-.2-4.2-.6-8.5-.8-4.4-.2-9.3-.7-10.8-1.1-1.6-.4-6.5-1-11-1.3-4.6-.3-9.8-.8-11.6-1.2-4.4-1-21.3-1.5-25.4-.9-4.7.7-13.1 4-15.4 6-6.6 5.6-6 11.3-6-57 0-52.4.1-58.4.8-59.1 1-1 1.5-1 2.8.3C46 73.7 48 75 50.3 76c2.6 1.2 3 1.3 4.2 2 .7.5 2 .8 2.8.8.8 0 2.8.5 4.5 1 3 1.1 13.2 1.5 15 .6a47 47 0 0 1 12.5-1.6c4.2-.3 7.8-.7 8-1 .7-.5 10.2-1.5 14.7-1.5 1.8 0 4.4-.3 5.8-.7 1.3-.4 5.5-1 9.3-1.3a93 93 0 0 0 10.2-1.2 98 98 0 0 1 10.9-1.2c4.2-.3 8.8-.9 10.2-1.3 1.3-.3 5.9-1 10.1-1.2 4.3-.3 8.9-.9 10.3-1.2a63 63 0 0 1 9.2-1c3.6-.2 7.4-.6 8.5-.9 1.1-.3 6.1-.9 11.2-1.4 5-.5 10.2-1.1 11.4-1.4 1.2-.3 5.7-.7 9.8-1 4.3-.3 8-.8 8.6-1a56 56 0 0 1 8.7-1c4.3-.4 9.2-1 10.8-1.4 1.6-.3 6.4-.9 10.6-1.1a69 69 0 0 0 10.2-1.3c1.4-.4 6.1-1 10.4-1.2 4.3-.2 8-.7 8.4-1 .4-.3 4-.7 8-1 4.1-.3 9.2-.9 11.4-1.3 2.2-.4 7-1 10.6-1.4a42.5 42.5 0 0 0 20.2-6l3.6-2.5c2.7-1.8 4-2.8 6.6-5.5 2.4-2.3 2.5-2.4 3.3-1.4m-147 93.5c-3.2.2-8.7.6-12 1-3.5.2-17.7.7-31.8 1a474.8 474.8 0 0 0-40.9 2c-6.8.3-12.7.7-13 1-.8.3 14.3 1 27.4 1 5.2 0 13.3.3 18 .7 4.9.4 19 1 31.6 1.2 12.5.3 25.8.8 29.5 1 11.2.9 25.2 1.5 30.2 1.4l4.7-.2.1-5.3.2-5.4-19 .2c-10.4 0-21.6.2-25 .4M45.6 230.4c3 2.7 4.9 4 5.7 4 .4 0 1.4.6 2.2 1.3.9.7 1.9 1.2 2.3 1.2.5 0 1.9.6 3.2 1.3 1.3.6 3 1.2 4 1.2.8 0 3 .5 4.6 1.1l3.1 1.1h130.2c95.7 0 130.6-.2 131.9-.7l5.8-1.2a15 15 0 0 0 5.3-1.8c.7-.5 1.9-1 2.5-1 .7 0 2-.5 2.8-1l2.4-1.7a44 44 0 0 0 6-4.5c2-1.7 3-1.2 3.4 1.8.4 2.7 0 72.7-.3 73.4-.2.2-27 .4-67 .5-69.8 0-78.3.3-61.1 1.7 2 .2 4.4.6 5.2 1 .8.3 3.8.9 6.7 1.1 2.8.3 6 .9 7.2 1.2 1 .4 3.7.9 6 1 2.1.2 5.1.7 6.6 1.1 1.5.5 5.2 1 8.2 1.3 3 .3 6.2.9 7.1 1.3 1 .4 4.1 1 7 1.2 2.9.2 6 .7 7 1.2 1 .4 4.2.8 7 1 3 .2 6 .7 7.3 1.2 1.2.5 4.3 1 7 1.3 2.5.1 5.4.6 6.4 1 .9.4 3.9 1 6.6 1.2 2.7.3 5.3.7 5.8 1 .4.2 2.8.7 5.2 1a118.6 118.6 0 0 1 12.9 2.2c1.9.4 4.5.7 5.7.7 1.5 0 2.6.3 3 .8.9 1 1.1 35.5.3 36.6-1 1.1-7.2 2.7-12 3-2.4.2-4.6.5-5 .7-.6.5-6.9 1.5-9.5 1.6-1 0-2.8.3-3.8.7-1.1.4-4.4 1-7.2 1.3-2.9.3-6 .8-7 1.2-1 .4-4.2 1-7.3 1.2a32 32 0 0 0-7 1.2c-.7.4-3.8 1-6.8 1.3-3 .3-6.3.8-7.2 1.2-1 .4-3.7.8-6.3 1-2.6.2-6 .8-7.4 1.2-1.6.5-5 1-7.5 1.3-2.5.1-5.4.6-6.4 1-1 .5-4.2 1-7 1.2-3 .3-5.9.8-6.8 1.2-.9.5-3.5 1-6.4 1.2-3 .1-5.7.6-7 1.2-1.2.5-4.1 1-7 1.2-13.4 1 1.2 1.2 64.6 1.2 57.6 0 69.1 0 69.6.7.4.4.5 10.7.4 37.5-.1 41.9.2 39.2-4.1 35.3a23 23 0 0 0-3.7-2.8 87.2 87.2 0 0 1-6-3.4c-.6-.4-2-1-3-1.2-.9-.1-2-.6-2.4-1-2.7-2.4-4.8-2.4-140-2.4-133.7 0-135.6 0-140 2.2-1 .5-2.6 1-3.5 1.3-1 .2-2.3.7-3 1.3-.6.5-1.4.9-1.9.9a6 6 0 0 0-2.3 1.2l-2 1.3c-.3 0-1.7 1-3 2.4-5 5-4.7 9-4.7-50.7 0-28.4.2-51.9.4-52.1 1-1.4 13.6-3.2 22-3.2 2 0 4.7-.3 5.7-.7 1.2-.4 6.3-1 12.1-1.3 5.7-.3 11-.9 12.1-1.3 1.1-.3 6.2-.9 11.5-1.1 5.2-.3 10-.8 10.8-1 .8-.4 6.2-1 12.1-1.3 6-.4 11.3-1 12-1.2.7-.2 5.5-.7 10.6-1 10.8-.7 11.3-.8 10-1.7-2-1.3-4.6-1.8-12.4-2.3-4.4-.3-8.2-.8-8.6-1.1-.3-.3-5-.8-10.3-1.2-5.4-.3-10-.9-10.7-1.2-.7-.4-4.3-.8-8.4-1-4-.2-8.8-.8-10.9-1.2-2-.5-6.7-1-10.4-1.3-3.7-.2-8.9-.8-11.6-1.4a54 54 0 0 0-9-1c-2.1 0-6.3-.5-9.1-1-2.9-.6-7-1-9.2-1-5.2 0-7.6-.7-8.2-2.3a2562 2562 0 0 1 0-101.8c.8-1.4 1.6-1.2 4 .9m266.7 246.3c2.9.3 6 .9 6.7 1.3a65.5 65.5 0 0 1 18.1 8.2 61.1 61.1 0 0 1 19.3 24.5c.3 1.3.8 2.7 1.2 3.1.4.4.9 1.6 1 2.6.2 1 .7 2.8 1.3 4 .5 1.3 1 3.6 1.2 5.2.2 1.7.7 3.9 1.2 5 1.2 3.1 1.2 55.5-.1 58.7-.5 1.1-1 3.5-1.2 5.2-.1 1.6-.7 3.7-1.2 4.5-.5.8-1 2.6-1.2 3.9a7.3 7.3 0 0 1-1 3c-.4.4-.8 1.4-1 2.4a10 10 0 0 1-1.5 3.4 6 6 0 0 0-1.2 2.4c0 .5-.4 1.4-1 2-.5.6-1 1.3-1 1.6 0 .2-1 1.5-2.1 3a41 41 0 0 0-2.7 3.5 34.8 34.8 0 0 1-9.3 8.6c-.6.8-2 1.6-5 3.1a9.5 9.5 0 0 0-2.4 1.5c-.2.2-1.2.6-2.4 1-1.2.2-2.5.8-2.8 1.2-.3.4-1.8.9-3.2 1-1.4.2-4 .8-5.8 1.4l-3.2 1H89.5l-3.5-1-5.5-1.4c-1-.2-2.4-.6-3-1-.5-.3-1.7-.7-2.6-1-2-.4-8.9-4.1-12.7-6.8a55.3 55.3 0 0 1-18.3-27c-.2-1-.8-2.6-1.3-3.6-.4-1-1-3.2-1.2-5.1-.1-1.9-.7-4.1-1.1-5-2.4-4.5-2.1-57.2.3-63.8.6-1.6 1-3.8 1-4.8 0-1.1.5-2.9 1-3.9s1.1-2.8 1.3-3.9c.2-1 .8-2.5 1.3-3.1.5-.7.9-1.7.9-2.3 0-.6.4-1.6.9-2.3.5-.6 1.2-1.9 1.5-2.8.4-.9.9-1.6 1-1.6.3 0 .7-.5.8-1.1.2-.6 1-1.8 1.7-2.7l2.3-3a42.8 42.8 0 0 1 12.1-10.6c0-.3.9-.8 1.9-1.3 1-.4 2.2-1 2.6-1.4.4-.3 1.6-.9 2.7-1.2l2.5-1c.3-.3 2-.8 3.6-1.2 1.7-.4 3.4-1 3.8-1.3 2-1.7 211.9-2.7 228.8-1.1M92.4 554.4l-1.7.4c-3.5.8-3.5 6.6 0 9.1l1.5 1.2h217.4l1.3-1.2c.7-.7 1.6-1.3 2-1.4 2-.7 0-6.9-2.8-7.8-1.3-.5-216.3-.8-217.7-.3m268 86.8c1.1 1.4 1 155.5-.2 156.7-.9.8-1 .8-2.8-1.1a41.3 41.3 0 0 0-20.6-10.7 8870 8870 0 0 0-272.1.1c-.8.4-2.5 1-3.7 1.2-1.3.2-2.6.6-3 1-.4.3-1.8.9-3 1.2A8 8 0 0 0 52 791c-.5.5-1 1-1.3 1-.3 0-.8.3-1.1.6l-2.4 1.9c-1 .6-2.2 1.7-2.6 2.3-1.1 1.3-1.5 1.4-2.6.3-.8-.8-1.2-107.4-.5-109.4.5-1.1 2.4-1 3 .2.4.5 1 1 1.4 1 .4 0 1 .4 1.3 1 .3.5.8 1 1.1 1 .6 0 4.5 2.4 5.8 3.6.4.4 1.9 1 3.2 1.3 1.3.3 2.7.9 3.1 1.3.4.4 1.6.7 2.6.7s3.4.4 5.3 1c3.6 1 113.3 1 205.4 0l35-.3.2-16c.3-19.7-.4-18.4 9.4-19.4a34 34 0 0 0 10.2-2.2c1-.2 2.9-.8 4-1.3a196.2 196.2 0 0 1 6.1-3l5.5-2.7c1-.5 2-1.1 2.2-1.5l3.6-3.2c1.7-1.4 4.5-4 6.2-5.7 3.3-3.5 3.4-3.6 4.4-2.4m-.1 160.4c.8 1 1 87 0 87.6-.3.2-5 .5-10.3.7-5.4.2-12 .5-14.7.8-2.7.3-10.7.7-17.8 1-17.1.7-15.1-.4-15.1 8.1 0 8.7-1.7 7.8 14 7.8a399 399 0 0 1 44 2.5c.4.2.6 10.4.6 40.3.1 46.7.5 43.6-4.7 38.5a30 30 0 0 0-4.5-3.8c-.8-.4-1.4-1-1.4-1.2 0-.2-.5-.6-1-.8-.7-.2-1.8-.9-2.6-1.5-.8-.7-1.7-1.2-2-1.2-.4 0-1.5-.4-2.4-1-.9-.4-2.4-1-3.4-1.2a29 29 0 0 0-9.8-2.5l-10.2-1.4c-2.5-.5-7-.8-10.1-.8-3.9 0-6-.2-7-.7-.8-.5-4.6-1-10.5-1.3-5-.3-10.1-.9-11.4-1.3-1.2-.3-6.4-.9-11.4-1.2-5-.3-9.7-.8-10.4-1-1.3-.7-1.1-.7-12.1-1.4a65 65 0 0 1-9.5-1c-.8-.4-5.8-1-11-1.3-5.4-.4-11-1-12.7-1.4-1.6-.4-6.2-.8-10.2-1-4.7-.1-8-.5-9.4-1-1.4-.5-5.4-1-11-1.3-4.8-.3-9.4-.7-10.1-1a91 91 0 0 0-11.1-1.2c-5.3-.4-11.2-1-13.1-1.5-2-.4-5.2-.8-7.2-.8-4 0-9.3-.6-13-1.4-1.1-.3-5.5-.8-9.7-1a107 107 0 0 1-11.4-1.3c-2.1-.4-7.3-1-11.5-1.2a60 60 0 0 1-9.1-1 77.3 77.3 0 0 0-25.6-.2c-.7.3-2.6.8-4.3 1.1a13 13 0 0 0-4.3 1.6c-.7.5-1.6 1-1.9 1-.3 0-1.2.5-2 1.2s-1.8 1.2-2.1 1.2c-.4 0-.8.4-1 .8-.5 1.3-2.1 1.8-3 1-1-1-1.2-117.6-.2-118.6.9-.9 2.3-.8 2.8.1.5 1 5.5 4.2 6.4 4.2.4 0 1.3.5 2 1 .8.5 2.5 1 3.8 1.2 1.4.2 3 .7 3.7 1.2a58.3 58.3 0 0 0 20.9 0c1.4-.5 5-1 10.2-1.4 4.3-.2 9.3-.8 11.1-1.2 1.8-.4 6.5-1 10.5-1.2 4-.3 7.8-.8 8.3-1 .6-.3 4.6-.8 9-1 4.5-.4 8.8-.8 9.6-1 2.4-.7 4.5-1 12.4-1.5 4-.3 7.8-.8 8.3-1.1.6-.3 5-.8 9.8-1.2 4.8-.3 10.1-1 11.9-1.4 1.8-.4 6.2-.8 9.8-1a47 47 0 0 0 8.7-1c1.2-.5 5.4-1 10-1.2a52 52 0 0 0 9.1-1c1.2-.6 9-1.5 13.7-1.5a37 37 0 0 0 7-1 65 65 0 0 1 11.1-1.3c4.2-.2 8.1-.6 9.4-1 1.2-.5 5.7-1 10-1.3 4.2-.2 8-.6 8.6-.9 1-.4 7-1.1 15.6-1.8 2.3-.1 4.6-.5 5-.7.4-.2 4.2-.7 8.4-1a83 83 0 0 0 10.4-1.2c1.5-.4 5.4-1 8.7-1.2 4.5-.4 6.6-.7 8-1.5 1-.6 2.5-1 3.3-1 .8 0 2-.4 2.7-1a11 11 0 0 1 2.6-1.3c.7-.2 1.8-.8 2.4-1.3.7-.5 1.5-.9 1.8-.9.7 0 1-.2 7-5.7 3.7-3.5 3.8-3.5 4.6-2.6m-118 92.8-14 .5c-7.7.2-14.8.5-16 .8-1 .3-8.7.6-17 .7-19.1.4-37 1-50.3 2-5.7.4-15.3.7-21.3.8-18.7.1-20.1.7-3 1 20 .6 37 1.3 42.4 1.8 2.3.3 12.2.6 22 .8 17.4.4 28.4.8 39 1.7 2.8.3 11.4.5 19.1.5h14v-5c0-4.3 0-5.3-.7-5.5-.9-.3-13.8-.4-14.2-.1m30.2 93.3c1.2.6 2.5 1.1 3 1.1s1.6.6 2.6 1.3a47.7 47.7 0 0 1 15.6 13.7c.4 1 1.5 3 2.5 4.8 1 1.7 2 4.2 2.3 5.5.3 1.2.8 2.7 1.2 3.2.3.6.7 2.4.9 4.1a142.6 142.6 0 0 1 1.8 28c0 13.4.1 18.2.5 18.7a172 172 0 0 0 36.3-.9c.4-.3 2-1 3.3-1.3 1.4-.4 3-1 3.4-1.4.4-.4 1.4-.9 2-1 .7-.3 1.9-.8 2.6-1.4l1.6-.9c.2 0 1.6-1 3.1-2l3.4-2.6c2.7-2 2.7-2.2 2.5 52.6-.1 54.8.4 50.4-5.3 45-.7-.7-1.5-1.3-1.7-1.3-.3 0-1.8-1-3.4-2.1-1.7-1.2-4.1-2.4-5.5-2.8a7.5 7.5 0 0 1-2.7-1c-.2-.3-1.8-.8-3.5-1a55 55 0 0 1-5.6-1.3c-3-.9-261.9-1.1-263.5-.2-.4.2-2.9.8-5.4 1.2-2.5.4-5.3 1.2-6.2 1.8-.8.5-2 1-2.4 1-.5 0-1.5.4-2.3.9l-3.5 2.3a60 60 0 0 0-4.6 3.4c-2.7 2.1-3.7 2-4.1-.3-1-5.3 0-132.5 1-135 .6-1.3 1.3-3.6 1.5-5a8 8 0 0 1 1-3.3c.3-.3.8-1.5 1.2-2.6.3-1 1-2.6 1.6-3.3a41.5 41.5 0 0 1 12-13.6c.1-.3.6-.7 1-.7.5 0 1.5-.5 2.3-1.2 1-.8 2.1-1.3 3.1-1.3.9 0 2.1-.3 2.8-.8 2-1.5 6-1.5 104.6-1.4h96.9l2.1 1.1m-185.3 73c0 .1-.6.7-1.4 1.2-1.5.8-2.4 5.2-1.3 6.3.5.5 169.7.7 171.6.1 2-.5.6-5.8-1.7-6.4-.6-.2-1.3-.6-1.7-1-.6-.8-165.5-1-165.5-.3"/>
    <path fill="#ebebeb" d="M357.6 39.2c-.8.8-1.6 1.4-1.8 1.4A6 6 0 0 0 354 42c-2.4 2.3-2.8 2.6-3.9 3-.6 0-1.4.7-2 1.2-.4.5-1.2 1-1.6 1-.5 0-1.6.5-2.5 1.2-1 .7-2.1 1.3-2.7 1.3-.6 0-1.8.4-2.8 1-1.2.8-3 1.2-6.4 1.4a25 25 0 0 0-6 1c-.6.4-4.8.8-9.5 1-5.8.4-9 .8-10.1 1.3-1.1.5-4.4.9-10.2 1.2-6 .3-9 .7-10.1 1.2-1.1.6-3.8.9-9.4 1.1-4.7.2-8.4.6-9.1 1a84 84 0 0 1-16.4 1.7c-1.8 0-3.6.3-4.5.7-1 .6-4 1-9.8 1.2-5.4.3-8.9.7-10 1.2-1.3.5-4.7 1-10.3 1.2-4.6.3-8.8.7-9.3 1-1.1.6-4.2 1-13.4 1.6-3.6.2-7 .7-7.6 1-.5.2-4.8.7-9.5 1-5.2.3-9 .8-9.8 1.2-.8.4-4.6.9-10 1.2a54 54 0 0 0-10.4 1.2c-1 .5-4.6.9-9.6 1.1-5.4.2-8.4.6-9.4 1-1 .6-4.3 1-10 1.2-6.1.4-9 .7-10.1 1.3-1 .5-4 .9-10 1.2-6.2.3-9.3.7-10.9 1.3a97.3 97.3 0 0 1-29.6-.2 9.6 9.6 0 0 0-3.3-1.1c-.6 0-1.7-.4-2.3-1a12 12 0 0 0-3-1.4c-1-.4-2-.8-2-1 0-.4-3.1-2.5-3.7-2.5V188l1.3-.1a3 3 0 0 0 1.9-1.1c.3-.6 1-1 1.3-1 .3 0 1.2-.6 2-1.3.7-.6 1.8-1.2 2.4-1.2a7 7 0 0 0 2.8-1c1-.7 3-1.2 5.4-1.5 2.1-.2 4.4-.6 5.2-1 2-.7 8.3-.6 11.7.2 1.5.4 6.2.8 10.4 1 4.8.2 8.8.6 10.4 1 1.6.5 6.2 1 10.7 1.3 4.4.3 9 .7 10.2 1 4.8 1.2 6.9 1.4 12.4 1.4 3.7 0 7 .4 9.6 1 2.2.5 7.1 1 11.2 1.3 4 .2 8.4.7 9.9 1 1.5.5 6.5 1 11.1 1.3 4.7.2 9.5.7 10.7 1 4.9 1.1 6.9 1.4 11.4 1.4 2.6 0 6.4.4 8.4.8s8 1 13.2 1.4c5.1.4 10 1 10.9 1.3.8.3 5 .8 9.4 1 4.3.2 9.2.8 10.7 1.2 1.6.4 5.4.9 8.5 1 7 .4 14.8 1.2 15.5 1.7.2.2 3.8.6 8 .7 4 .2 8.8.7 10.6 1.1 1.7.4 6.5 1 10.6 1.2A57 57 0 0 1 315 206c.3.2 4 .5 8 .7 5.6.2 7.9.5 9.2 1.1.9.5 2.9 1 4.4 1.2 1.7.2 3 .7 3.5 1.2.4.5 1.2 1 1.7 1 .6 0 1.6.3 2.3.7l3.2 1.7c4.6 2.4 5.6 3.1 7.8 5.2a11 11 0 0 0 2.8 2.3c.3 0 .6.3.6.7 0 .4.3.8.7.8.7 0 .7-4.6.6-38.8l-.1-38.8-12.4-.3c-6.8-.2-14.7-.6-17.6-1a273 273 0 0 0-15.6-.7c-15.3-.4-14.1.3-14.1-9.2 0-11.3-2.4-10.4 27.4-11a337.5 337.5 0 0 0 29.4-1.4c1.9 0 2.6-.2 2.9-.7.4-1.3.3-82.4-.2-82.7-.2-.2-1 .4-1.8 1.2m-99.4 87.2c.8 1.4.7 13.1 0 13.8-.9.6-48.6-.2-55.5-1a522 522 0 0 0-25-.9c-21.7-.5-37.4-1.2-40.6-2-1.1-.2-11-.6-22.1-.7-21.9-.3-27.5-.7-26.2-2 .3-.3 6-.9 17-1.8l10.2-.9c2.3-.3 10.8-.6 18.8-.8 32-.6 38-.8 41.2-1.3 4.4-.8 6.7-.8 31.4-1.2 12-.1 23.7-.5 26-.8 12.3-1.5 24.1-1.7 24.8-.4M43 231.4c-.4.4-.3 97.8.1 98.5.6 1 5.2 1.7 14.5 2.4 4.8.4 9.7 1 10.9 1.4 1.3.5 5 1 9 1 4.2.2 8 .7 10.6 1.3 2.6.7 5.7 1 8.9 1 2.7 0 6.6.4 8.7.8l6 1.2c1.2.3 4.1.5 6.5.5 2.4 0 6.4.5 9 1 2.4.5 7.3 1 10.7 1.3 3.4.1 8 .7 10.1 1.2 2.2.5 7.1 1 10.9 1.2 6.2.3 7.2.5 10.5 1.9 6.2 2.5 5 3.1-8.3 3.8-5.4.3-10.2.7-10.7 1-1 .5-12.4 1.5-17.5 1.5-1.8 0-4.3.4-5.4.8-1.4.5-5.7.9-12.1 1.2a69 69 0 0 0-12 1.2c-1.2.5-5.7 1-11.6 1.2-5.5.3-10.6.8-12 1.2-1.3.5-5.8.9-11.3 1.1-6 .3-9.9.6-11.2 1.1-1 .4-4.7.9-8.1 1l-6.2.4-.2 50.5c0 49.8 0 53 1 51.2.2-.5.7-.8 1-.8.2 0 .9-.5 1.6-1.2 2.4-2.2 3.9-3.3 4.5-3.3.3 0 1.2-.5 1.9-1a8 8 0 0 1 2.9-1.3c1-.2 2-.6 2.4-1 .5-.4 2.3-1 4-1.2a18 18 0 0 0 4.7-1.4c2.3-1.3 267-1.3 269 0 .7.5 2.8 1.1 4.6 1.4 1.9.3 3.5.7 3.7 1a8 8 0 0 0 2.8 1.3c1.4.4 2.8 1 3.1 1.5.4.4 1 .7 1.3.7.4 0 1.3.6 2 1.2.7.7 1.6 1.3 2 1.3.3 0 1 .4 1.3.9.3.5 1.1 1 1.7 1.2l1.2.3V392l-71.5-.1c-58.5-.2-71.8-.3-73.2-.8-3.3-1.4-1.2-2.5 6.4-3 2.8-.3 6-.8 7.2-1.2 1.1-.5 4-1 6.4-1.1 2.5-.2 5.2-.7 6.1-1.1 1-.4 4-1 7-1.2 2.8-.3 5.4-.7 5.7-.9.8-.6 2.8-1 8.6-1.5 2.9-.3 5.5-.8 5.8-1 .4-.3 3.3-.8 6.5-1 3.3-.4 6.5-1 7.2-1.3.7-.4 4-1 7.4-1.2a27 27 0 0 0 7.1-1.2c.6-.5 3.1-.9 6-1 3.1-.3 5.7-.7 7-1.3 1.2-.5 3.9-1 6.9-1.2 2.7-.2 6-.8 7.2-1.2 1.2-.5 4.4-1 7.3-1.2 3.3-.2 5.5-.6 6.3-1.1.8-.5 3.2-1 7-1.2 3.5-.3 6.5-.7 7.3-1.2.8-.4 3-.9 5.1-1l3.7-.4v-16.4c0-9-.2-16.7-.4-17-.6-1-5.2-2-10-2.4-2.4-.2-5.3-.7-6.5-1.1-1.2-.4-4.4-1-7-1.2-2.7-.2-6-.8-7.2-1.2a45 45 0 0 0-7.5-1.3c-3.3-.3-5.6-.7-6-1.2-.5-.4-1.8-.7-3-.7-3.7 0-10.5-1-11.6-1.7-.6-.4-3.3-.8-6.4-1-3.1-.2-6-.6-7-1-.8-.4-4.1-1-7.2-1.3-3.2-.3-6.2-.8-6.7-1.2a23 23 0 0 0-6.2-1c-3.2-.2-6-.7-7.4-1.2-1.5-.6-4.1-1-7.4-1.2-3.4-.2-5.6-.6-6.7-1.1-1-.6-3.4-1-7-1.2-3.5-.3-6.1-.7-7.1-1.2a20 20 0 0 0-6-1c-6.4-.5-7.1-.7-9-2.3-.8-.8-2-1.5-2.5-1.5-.6 0-.9-.2-.7-.5.2-.3 25-.5 73-.5 66 0 72.9 0 73.2-.7.4-1.3.3-71-.2-71.3-.2-.2-.9.2-1.5.9-.6.6-1.7 1.3-2.3 1.5-.7.1-1.2.5-1.2.8 0 .3-.8.8-1.7 1.2-1 .4-1.8 1-1.8 1.2 0 .3-1 .8-2 1.1-1.2.3-2.7 1-3.4 1.5-.7.4-2.1 1-3.2 1.1-1 .2-2.5.7-3.2 1.2-2 1.3-273 1.3-275.4 0-.8-.4-2.6-1-4-1.2a7.3 7.3 0 0 1-3.2-1.2c-.5-.5-1.6-1-2.4-1.2-.8-.2-1.8-.8-2.3-1.3-.5-.5-1.3-1-1.7-1-.5 0-1.3-.5-2-1.2-.5-.7-1.4-1.2-1.8-1.2-.4 0-1.3-.6-1.9-1.3-.6-.7-1.3-1-1.5-.9m47.6 246.9c-.8.1-2 .5-2.5.9-.5.3-2.5.8-4.2 1-1.8.2-4 .7-4.7 1.2-.9.5-2.5 1-3.6 1.2-1.2.2-2.3.7-2.6 1-.4.4-1.4 1-2.4 1.3-1 .3-2.1 1-2.6 1.4l-2.7 2-3.5 2.6c-.9.8-1.9 1.4-2.2 1.4-.3 0-.5.3-.5.7 0 .4-.6 1-1.3 1.5-.6.4-1.2 1-1.2 1.4 0 .6-.6 1.3-3.7 5-.7.8-1.3 1.8-1.3 2.3 0 .4-.4 1.2-.9 1.7a5 5 0 0 0-1.3 2.1c-.1.8-.6 1.6-1 1.9-.3.3-1 1.8-1.4 3.3-.5 1.6-1 2.9-1.2 2.9-.2 0-.7 1.5-1 3.3-.3 1.9-.9 4-1.3 4.9-.3.8-.8 3.1-1 5.2a104.5 104.5 0 0 0-2.1 27.8c-.2 19 0 24 1.5 31 .5 1.8.8 4.3.8 5.5 0 1.2.5 3 1 4.2.5 1.2 1 3.4 1.3 5 .2 1.7.6 3 1 3.2.5.3 1 1.5 1.2 2.8.3 1.3 1 2.9 1.5 3.6.5.7 1 1.7 1 2.2 0 .5.5 1.5 1.2 2.2.7.7 1.2 1.6 1.2 1.9a44.6 44.6 0 0 1 3.4 4.6c2 2.7 4 4.6 6.6 6.7 3.4 2.7 5.1 3.9 5.7 3.9.3 0 .8.3 1.2.7.3.4 1.4 1 2.4 1.3 1 .3 2.2.9 2.7 1.3.4.4 1.9 1 3.1 1.2 1.3.2 2.7.7 3.2 1.1.4.4 2.4.9 4.5 1 2 .2 5.6.8 8 1.3 6 1.4 213.7 1.5 216.9.2 1-.4 4-1 6.8-1.3 2.7-.3 5.3-.8 5.7-1.2.4-.3 1.7-.9 3-1.2 1.2-.3 2.7-1 3.4-1.5.6-.5 1.5-1 2-1s1.2-.4 1.7-1a5 5 0 0 1 2.3-1.2c.8-.2 1.6-.6 1.8-.9a53.9 53.9 0 0 0 17.8-22.3c.3-.2.8-1.3 1-2.4.1-1.2.6-2.7 1-3.4.5-.6 1.1-2.7 1.5-4.6.4-2 .9-3.6 1.2-3.8.3-.2.8-3.4 1.2-7.2.5-3.8 1-7.3 1.3-7.8.7-1.3.7-40.7 0-42a42 42 0 0 1-1.5-10c0-1.2-.5-3-1-3.9-.5-1-1-3-1.3-4.5-.2-1.5-.7-3.3-1.2-4.2-.5-.8-1-2.3-1.3-3.4-.2-1-.8-2.3-1.3-2.8s-.9-1.4-.9-1.9-.5-1.5-1.2-2.2c-.7-.8-1.3-1.6-1.3-2 0-.4-.4-1-1-1.5-.5-.5-1-1.1-1-1.4 0-2.5-11.9-13.1-17.4-15.6-1-.4-1.9-1-1.9-1.2 0-.2-1-.7-2.4-1.1-1.4-.4-3-1-3.6-1.5-.6-.4-2.4-.8-3.8-1-1.5-.1-3.3-.7-4-1.2-1.2-.8-219.4-1.5-224.8-.7m219 74c.2.3 1.2.8 2.2 1.3 3.7 1.4 4.4 8 1.3 11l-1.8 1.8-109.4.1c-119.2.2-111.8.4-114.4-2.9-3.2-4-2-7.8 3.1-10.5l2.4-1.2h108.2c74.5-.1 108.2 0 108.5.4m44.6 95.8a24.4 24.4 0 0 1-5.8 4.8c-.5 0-1 .3-1 .8 0 .4-.6 1-1.4 1.2-.8.3-1.5.8-1.7 1.1-.1.4-1.1 1-2.2 1.3-1.2.4-2 .9-2 1.1 0 .2-1 .7-2.2 1-1.1.3-2.5 1-3 1.4-.4.5-1.8 1-3 1.2-1.4.2-2.8.7-3.3 1-.5.5-2.5 1-5.2 1.3-2.3.2-4.5.7-4.9 1a8 8 0 0 1-2.8.7 69 69 0 0 0-3.3.6l-1 .2-.2 16.4-.2 16.4-1.1 1c-1.2.9-3.6.9-122.7.7H65.7l-2-1.2a9 9 0 0 0-3.6-1.1 6 6 0 0 1-3-1 11 11 0 0 0-2.5-1.2c-.6-.2-2-1-3-1.6l-2.2-1.2c-.3 0-.8-.3-1.3-.7-2.4-2.2-3-2.7-3.9-3.2-.5-.3-1-.4-1.3-.2-.4.4-.4 105.7 0 105.7a5 5 0 0 0 1.5-1 16 16 0 0 1 4.5-3.6c.8-.4 1.8-1 2.1-1.5.3-.4 1.3-.9 2-1 .8-.2 1.7-.7 2-1 .3-.4 1.5-.9 2.6-1 1.2-.2 2.7-.7 3.4-1.2 3.3-2.1 7-2.2 136-2.3 74.1-.1 124.7 0 128.9.3 11 .8 14.6 1.2 15.5 2 .5.5 1.8 1 3 1.2 1 .1 2.3.6 2.6 1 .3.3 1.4 1 2.4 1.2 1 .3 2 .9 2.3 1.2a7 7 0 0 0 2 1.2c1.3.6 2.9 1.9 4.6 3.7.4.4 1 .8 1.2.8.5 0 .5-152 0-152.2-.2-.1-2.6 2-5.3 4.7m2.7 158a14 14 0 0 1-3 2.5c-.7.4-1.5 1-1.9 1.5-.3.5-.8.9-1 .9-.3 0-1.3.6-2.3 1.2-1 .7-2.2 1.3-2.6 1.3-.4 0-1.3.4-2 1-.6.5-2 1-3 1.3-1 .1-2.2.6-2.6 1-.4.3-2.3.8-4.1 1.1a72.7 72.7 0 0 1-14.6 2.2c-5 .4-10 1-10.8 1.3-.8.3-5 .8-9.4 1-5.2.3-8.7.7-10.1 1.3a43 43 0 0 1-10.2 1.1c-4.4.3-8.4.7-9 1-1.1.6-10.2 1.5-15.3 1.6-1.6 0-3.8.3-5 .7-1.1.5-5.3 1-10.3 1.3-5.6.3-9 .7-10 1.2-1.1.5-4.4.9-10 1.2-6 .3-8.8.6-10 1.2-1 .6-3.6.9-9.5 1.1a31 31 0 0 0-9.2 1c-.8.5-4.1.9-10.2 1.2a47 47 0 0 0-10.4 1.3c-.8.4-4.4.8-10 1.1-4.8.3-9.2.8-9.6 1-1.3.7-8.1 1.5-12.4 1.5-2 0-5.5.5-7.7 1a76 76 0 0 1-10.7 1.3 56 56 0 0 0-9 1c-1.2.4-6 1-10.8 1.2-4.8.3-9.2.8-10.1 1.2-4.6 2-31.9 2-34 .1-.5-.4-1.6-.9-2.6-1a7 7 0 0 1-2.7-1.3c-.5-.5-1.7-1-2.5-1.2-.8-.2-2.3-1-3.3-2-1-.9-2-1.5-2-1.4-.6.6-.4 114.6.1 114.9.3.2.5 0 .5-.2 0-.3.5-.6 1.1-.8a4 4 0 0 0 1.8-1.3c.4-.5 1-1 1.3-1 .3 0 1.3-.5 2.3-1.2.9-.6 2.3-1.2 3-1.2.8 0 2-.4 2.8-1a55.2 55.2 0 0 1 21.7-1.8l9.7.8c3.4.3 6.9.7 7.7 1 .8.3 5.2.8 9.8 1 4.8.3 9.4.8 10.7 1.2 1.2.4 6.1 1 10.9 1.3 4.8.3 9.7.7 10.9 1 1.2.3 6 .8 10.7 1.2 4.6.3 9.8 1 11.6 1.4 1.8.4 6.6.9 10.7 1 4.6.2 8.3.6 9.9 1.1 1.4.5 5.8 1 10.6 1.2 4.5.3 9.4.8 11 1.2 1.5.5 5.7 1 9.8 1.1 4 .2 8.8.6 10.7 1 2 .4 7.5 1 12.4 1.4 4.9.4 10.3 1 11.9 1.4 1.6.4 6.3.9 10.4 1 4.2.2 8.5.7 9.8 1 1.4.5 6 1 10.5 1.3 4.4.3 9.3.8 11 1.2 1.5.5 4.2.8 5.9.8 4.8 0 14.5 1 17.5 1.8 1.5.4 4.6.7 6.8.7 4.5 0 11.4.8 12.7 1.5.4.3 2.3.7 4.2 1 1.8.2 3.6.7 3.9 1.1.3.4 1.5.9 2.6 1a6 6 0 0 1 3 1.4c.4.5 1.2 1 1.7 1 .4 0 1.4.5 2.1 1.2.8.7 1.7 1.2 2 1.2.4 0 1 .4 1.2 1a4 4 0 0 0 2 1.4c.7.3 2.3 1.4 3.3 2.5s2 2 2.3 2c.2 0 .4-17.4.4-38.8v-38.8l-15.8-.4a611 611 0 0 1-21.4-.8c-17-1.3-21.6-1.7-22.2-2.1-1.3-.8-.8-15.5.5-16.4 2.5-1.5 12-2.3 35.2-2.7 12.5-.3 22.9-.6 23-.8.7-.7.7-84 0-84-.3 0-1.4 1-2.3 2m-99 86.8c.7.8.8 2.5.8 7.1 0 7.7-.1 7.9-5.7 7.5-11.6-1-19.8-1.2-33.2-1.3a376 376 0 0 1-23.3-.8c-4.6-.4-18.1-1-30-1.2-11.8-.3-26-.8-31.4-1.3-5.5-.4-17-1-25.8-1.2-26.9-.7-26.3-3 1-3.7 6-.2 13.6-.6 16.8-1 3.7-.5 15.2-1 30.5-1.2 13.5-.3 26.1-.7 28-1 2-.3 11.7-.7 21.8-1l27.3-.8c4.9-.1 10.4-.4 12.1-.6 6.7-.9 10.3-.7 11.2.5m-185.1 96c-1 .6-3 1.1-4.4 1.3-1.4.2-2.8.6-3.1 1-.3.4-1.3 1-2.3 1.2-2 .7-2.8 1.4-7.9 6.4-2 2-3.7 4-3.7 4.3 0 .3-.3.7-.6.9-.4.1-1 1.1-1.3 2.1-.4 1-1 2.2-1.3 2.4-.3.3-.8 1.7-1.2 3.2-.3 1.4-1 2.7-1.2 2.8-.4.2-.8 1.7-1 3.7-.2 2-.7 4.7-1.2 6-.8 2.6-1.6 127.7-.8 129.7.2.5.7.3 2-.8 1-.9 2-1.6 2.5-1.6.4 0 .7-.2.7-.5s.8-.9 1.7-1.3c1-.5 1.7-1 1.7-1.2 0-.2 1.3-.8 2.7-1.2 1.5-.4 3-1 3.3-1.5.3-.3 1.7-.8 3.1-1 1.4-.2 3.1-.7 3.8-1.1 1.1-.8 12.5-.8 136.8-.8h135.6l2 1c1 .7 2.8 1.2 3.8 1.2s2 .3 2.4.7c.3.4 1.8 1 3.2 1.5 1.5.4 2.7 1 2.7 1.2 0 .2.6.7 1.4 1 1.3.8 1.8 1.2 4 3.1 1.4 1.2 2.9 2 3.2 1.6.2-.2.4-21.8.4-48.1 0-45.4-.2-50-1.4-47-.1.4-.5.7-.8.7-.4 0-1.2.6-1.8 1.3-.7.6-1.4 1.2-1.6 1.2a6 6 0 0 0-2 1.2c-.8.7-1.8 1.3-2.3 1.3-.5 0-1.5.4-2.1 1-.7.5-2 1-2.7 1.3-.8.1-1.8.6-2.3 1-.4.4-2.6 1-4.7 1.2a68.8 68.8 0 0 1-21.4 1.9h-14.5l-1.1-1.1-1.2-1.2-.2-23c-.2-22-.3-23-1.3-25.3-.6-1.2-1.2-3.4-1.4-4.8-.2-1.4-.6-2.6-1-2.8-.3-.1-.8-1-1-2-.1-.9-.8-2.4-1.5-3.3a6.4 6.4 0 0 1-1.2-2.2c0-.3-.3-1-.8-1.4l-2.3-2.7-4.5-4.4-3.8-3.3c-.4-.4-1.6-1-2.6-1.3-1-.3-2-.9-2.1-1.2-.2-.4-1.4-.8-2.8-1a21 21 0 0 1-4.8-1.3c-3.4-1.5-193-1.5-195.8 0m181.5 70.5c4 2.1 6 8.6 3.6 11-.7.8-9.4.8-87.5.8H83.8l-1-1c-1-1.2-1.5-5.6-.5-6.2.3-.1.5-.7.5-1.2s.8-1.6 1.7-2.4l1.8-1.6h83.5c60.5 0 83.8.2 84.6.6"/>
    <path fill="#747474" d="M357 36.8c-2.6 2.7-3.9 3.7-6.6 5.5l-3.6 2.4c-.7.5-2.3 1.3-3.4 1.7l-2.4 1c-.7 1-8.3 2.8-14.4 3.4-3.6.3-8.4 1-10.6 1.4-2.2.4-7.3 1-11.3 1.3-4 .3-7.7.7-8 1-.4.3-4.2.8-8.5 1-4.3.3-9 .8-10.4 1.2-1.5.5-6 1-10.2 1.3-4.2.2-9 .8-10.6 1.1-1.6.4-6.5 1-10.8 1.3a56 56 0 0 0-8.7 1c-.5.3-4.3.8-8.6 1-4.2.4-8.6.8-9.8 1.1-1.2.3-6.4 1-11.4 1.4-5 .5-10 1.1-11.2 1.4-1 .3-5 .7-8.5.8a63 63 0 0 0-9.2 1c-1.4.4-6 1-10.3 1.3-4.2.3-8.8.8-10.1 1.2-1.4.4-6 1-10.2 1.3a98 98 0 0 0-10.9 1.2 93 93 0 0 1-10.2 1.2c-3.8.3-8 .9-9.3 1.3-1.4.4-4 .7-5.8.7-4.5 0-14 1-14.6 1.5-.3.3-4 .7-8 1a47 47 0 0 0-12.6 1.6c-1.8.9-12 .5-15-.6-1.7-.5-3.7-1-4.5-1-.8 0-2.1-.3-2.8-.7-1.2-.8-1.6-1-4.2-2-2.4-1.1-4.4-2.4-5.6-3.6-1.3-1.3-1.7-1.4-2.8-.3-.7.7-.8 6.7-.8 59.2 0 68.2-.6 62.5 6 56.8 2.3-2 10.7-5.2 15.4-5.9 4.1-.6 21 0 25.4.9 1.8.4 7 1 11.6 1.2 4.5.3 9.4.9 11 1.3 1.5.4 6.4.9 10.8 1.1 4.3.2 8.2.6 8.5.8.8.5 13 1.7 17 1.7 1.7 0 4.4.4 5.9.8s6.4 1 11 1.2c4.6.3 9.3.8 10.6 1.2 1.3.4 6.3 1 11.1 1.3 4.8.3 9.5.8 10.4 1 1 .3 6 .9 11.2 1.3 5.2.3 10 .9 10.8 1.2.7.2 5 .7 9.4 1 8.9.5 11.9.9 13.7 1.6.7.2 5 .6 9.5.9 4.6.2 9.5.7 11 1.1 1.4.4 5.7.9 9.5 1 3.8.2 9 .8 11.6 1.3 2.6.5 7.5 1 11 1.2 3.3.2 7.6.6 9.4 1 1.7.5 7.1 1 12 1.3a66.8 66.8 0 0 1 15.5 2 34.1 34.1 0 0 1 10.4 2.7c.8.2 2 .8 2.6 1.3.7.5 1.5 1 1.8 1 .3 0 1.5.6 2.8 1.4l3.1 2.1c1.2.8 5 4.1 6.7 5.8 3.4 3.6 3.5 2 3.3-43-.2-40.4 0-37.7-3.2-37.8-1 0-2.7-.2-3.7-.5-1.1-.2-13-.7-26.3-1-16-.2-24.4-.6-24.8-1-.8-.7-1-13.1-.2-14 .4-.6 1.9-.8 6.3-.8 3.2 0 7.8-.3 10.3-.6 6-.7 7.7-.7 25.1-1.2 12.7-.3 15.4-.5 15.9-1 .8-1.1.7-86.7-.2-87.7-.8-1-1-.9-3.3 1.4m3-.2c.6 1 .6 84 0 85.1-.7 1.2-4 1.5-25.4 2-17.9.4-30.8 1.2-32.1 2-1.4 1-1.8 13.9-.4 15.2.7.8 9.7 1.3 20.6 1.4 7.4 0 36.7 1.8 37.2 2.3.7.6.7 78.4 0 79-.3.4-1.7-.5-4.8-3.2a52.4 52.4 0 0 0-26-12c-.3-.1-5.1-.7-10.8-1.2-5.8-.5-10.7-1-11-1.2-.2-.2-4.6-.6-9.7-1-5.2-.4-11-1-12.8-1.5-2-.4-5.2-.8-7.2-.8s-6-.3-9-.7l-13.3-1.5c-4.5-.4-10.1-1-12.4-1.5a99 99 0 0 0-9.6-1c-3-.1-8.2-.7-11.7-1.2-3.4-.5-8.8-1-12-1.2-3-.2-7-.7-8.9-1-1.7-.4-5.5-.9-8.4-1-2.9-.2-8.3-.8-12.1-1.3-3.9-.6-10.1-1.2-14-1.4-3.7-.3-7.6-.7-8.6-1-1-.3-5-.8-9.1-1l-11.7-1.3c-2.3-.4-7.6-1-11.6-1.2-4.1-.3-9.3-.9-11.4-1.3-2.2-.4-7.1-1-11-1.2-3.8-.3-9-.9-11.6-1.3a81.5 81.5 0 0 0-36 .8c-4.3 1.5-5 2-9.5 4.9-4.4 3-4 7.8-4-57.5 0-62.5-.2-60 2.6-57.6a23.8 23.8 0 0 0 7.9 4.6 55.8 55.8 0 0 0 31 2.6c1-.3 4.6-.8 8-1l11.4-1.3 11.4-1.3c3.4-.3 7-.7 8-1 1-.2 4.6-.7 8.1-1 3.6-.3 9.1-1 12.4-1.4 3.3-.5 8-1 10.7-1.2 2.6-.2 6.5-.6 8.6-1 2.2-.5 7-1 10.5-1.3a99 99 0 0 0 10.2-1.2c2-.4 6.7-1 10.6-1.2 3.8-.3 8.7-.9 10.9-1.3 2.1-.4 5.3-.8 7-.8 1.5 0 6.3-.5 10.6-1.2 4.2-.7 9-1.2 10.7-1.2 1.6 0 5.4-.5 8.4-1 3-.6 8.4-1.2 12-1.5 3.8-.3 7.5-.7 8.3-1a85 85 0 0 1 9-1c4-.3 9-.9 10.9-1.3 2-.3 6.5-.9 10.1-1.2 3.7-.3 8.3-.8 10.4-1.2 2-.4 6.8-1 10.6-1.3 3.8-.3 7.7-.7 8.7-1l7.4-1a43 43 0 0 0 17.2-5c.2 0 1-.3 1.4-.8.6-.5 1.8-1.2 2.7-1.7 1.7-.8 3.5-2.1 7.7-6 2-1.9 2.5-2 3-1.4m-110.8 90.5c-.2.1-10 .5-22 .8-12 .3-24.6.7-28 1-6.2.4-21 1-52.8 2-9 .2-18 .7-19.9 1l-15 1c-18.1 1-14.8 1.5 12.8 2.2 18 .4 25.4.7 36.2 1.5 5.6.4 13.6.7 17.8.7 11 0 36.3 1 40.8 1.5 6.9.8 37.4 1.2 38.3.5.9-.8 1-9.8.2-11.5-.5-.9-7.7-1.5-8.4-.7m7.8 6.6-.1 5.3-4.7.2c-5 .1-19-.5-30.2-1.4-3.7-.2-17-.7-29.5-1-12.6-.3-26.7-.8-31.5-1.2-4.8-.4-13-.7-18.1-.8-13 0-28.2-.6-27.4-1 .3-.2 6.2-.6 13-1a474.8 474.8 0 0 1 40.9-2c14-.2 28.3-.7 31.7-1 11.3-1 18-1.2 37.1-1.3l19-.2-.2 5.4M41.7 229.5c-.7 1.2-.8 100 0 101.8.5 1.6 3 2.3 8.1 2.3 2.2 0 6.3.4 9.2 1 2.8.5 7 1 9.2 1 2.1 0 6.1.4 8.9 1 2.7.6 8 1.2 11.6 1.4 3.7.2 8.4.8 10.4 1.3 2 .4 7 1 11 1.2 4 .2 7.6.6 8.3 1 .6.3 5.3.9 10.7 1.2 5.3.4 10 .9 10.3 1.2.4.3 4.2.8 8.6 1 7.8.6 10.5 1 12.3 2.4 1.4 1 .9 1-9.9 1.7-5.1.3-10 .8-10.6 1-.7.3-6 .8-12 1.2-5.9.4-11.3 1-12 1.2-.8.3-5.7.8-11 1-5.2.3-10.3.9-11.4 1.2-1 .4-6.5 1-12 1.3-6 .3-11 .9-12.2 1.3-1 .4-3.6.7-5.7.7-8.4 0-21 1.8-22 3.2-.2.2-.3 23.7-.4 52.1 0 59.7-.3 55.6 4.6 50.7 1.4-1.3 2.8-2.4 3-2.4.2 0 1.2-.6 2-1.3a6 6 0 0 1 2.4-1.2c.5 0 1.3-.4 2-1 .6-.5 2-1 2.9-1.2 1-.3 2.5-.8 3.4-1.3 4.5-2.2 6.4-2.2 140-2.2 135.3 0 137.4 0 140 2.4.5.4 1.6.9 2.6 1 1 .2 2.3.8 3 1.2 1.4 1 3.4 2 5.9 3.4a23 23 0 0 1 3.7 2.8c4.3 4 4 6.6 4.1-35.3.1-26.8 0-37-.4-37.5-.5-.6-12-.7-69.6-.7-63.4 0-78-.3-64.6-1.2 2.9-.2 5.8-.7 7-1.2 1.3-.6 4-1 7-1.2 2.9-.2 5.5-.7 6.4-1.2 1-.4 3.8-1 6.8-1.2 2.8-.2 6-.7 7-1.1 1-.5 3.9-1 6.4-1.1 2.6-.2 6-.8 7.5-1.3 1.5-.4 4.8-1 7.4-1.2 2.6-.2 5.4-.6 6.3-1 .9-.4 4.1-1 7.2-1.2 3-.3 6-.9 6.8-1.3.7-.3 3.9-.9 7-1.2 3-.3 6.4-.8 7.3-1.2 1-.4 4.1-1 7-1.2 2.8-.3 6-.9 7.2-1.3 1-.4 2.8-.7 3.8-.7 2.6 0 9-1 9.6-1.6.3-.2 2.5-.5 5-.7 4.7-.3 11-1.9 11.9-3 .8-1 .6-35.5-.3-36.6-.4-.5-1.5-.8-3-.8-1.2 0-3.8-.3-5.7-.7l-6-1.2c-1.3-.3-4.4-.7-6.9-1-2.4-.3-4.8-.8-5.2-1-.5-.3-3-.7-5.8-1a34 34 0 0 1-6.6-1.2c-1-.4-3.9-.9-6.5-1-2.6-.2-5.7-.8-6.9-1.3-1.3-.5-4.3-1-7.3-1.2-2.8-.2-6-.6-7-1-1-.5-4.1-1-7-1.2a33 33 0 0 1-7-1.2c-1-.4-4.2-1-7.1-1.3-3-.3-6.7-.8-8.2-1.3-1.5-.4-4.5-.9-6.7-1-2.2-.2-4.9-.7-6-1-1-.4-4.3-1-7.1-1.3-2.9-.2-6-.8-6.7-1.1-.8-.4-3.2-.8-5.2-1-17.2-1.4-8.7-1.7 61-1.7 40 0 66.9-.3 67-.5.5-.7.8-70.7.4-73.4-.4-3-1.4-3.5-3.3-1.8a44 44 0 0 1-6.1 4.5l-2.4 1.6c-.9.6-2.1 1.1-2.8 1.1-.6 0-1.8.5-2.5 1-.7.6-2.9 1.3-5.3 1.8l-5.8 1.2c-1.3.5-36.2.6-131.9.7H70.6l-3-1c-1.8-.7-3.9-1.2-4.8-1.2-.9 0-2.6-.6-4-1.2a11 11 0 0 0-3-1.3c-.5 0-1.5-.5-2.4-1.2-.8-.7-1.8-1.3-2.2-1.3-.8 0-2.7-1.3-5.7-4-2.3-2.1-3.1-2.3-3.8-1m3.1 1.6A52 52 0 0 0 71 242c2.7.3 51.2.4 133.3.3l129.1-.1 5.1-1.4a37.1 37.1 0 0 0 9-3.3c.6 0 4.6-2.3 6.3-3.6 6.8-5.4 6.6-5.6 6.7 5.5.2 27.4-.1 64.3-.5 64.8-.4.4-18 .6-67.8.6-66.2.1-73.8.3-70.2 1.7l5.2.9 9.8 1.5c8.7 1.6 16.4 3 18.6 3.2a893 893 0 0 1 27.3 4.5l7 1.2c2.4.5 6.6 1.2 9.3 1.5 2.7.3 5.9.9 7.2 1.3 1.2.4 3.1.7 4.2.7s4.1.5 6.7 1c2.6.6 6.9 1.3 9.4 1.7 2.6.3 5.3.9 6 1.2.7.2 3.2.6 5.5.8 2.3.2 5.7.8 7.7 1.3 1.9.5 5.5 1 8 1.3 5.8.4 6.5 1 6.6 4.7.1 11.6 0 31.7-.3 32-.4.4-5.7 1.6-9.7 2.2a297.9 297.9 0 0 0-14.8 2.4l-8.7 1.4-12.4 2.3c-3.8.7-7.7 1.2-8.7 1.2-1 0-3.3.5-5.2 1-1.8.5-5.4 1.2-7.9 1.5a61 61 0 0 0-7.4 1.2c-1.6.4-4.4.9-6.2 1-1.8.2-5.2.8-7.5 1.3a77 77 0 0 1-7.7 1.2c-1.9.2-4.6.7-6.1 1-1.5.4-4.6 1-7 1.3-2.3.3-5.4.8-7 1.2-1.4.4-4.7 1-7.1 1.2-2.5.3-5.6.9-7 1.2a71 71 0 0 1-7.6 1.3c-12.7 1.5-5.6 1.7 66.5 2 38.8.1 70.8.4 71.1.6.5.3.6 8.2.6 36.6 0 39.6.2 38.2-2.8 35.4a49 49 0 0 0-26.1-10.9c-4.6-.7-15.7-.8-132.1-.6-139.6.1-131.7 0-139 3l-3.8 1.2c-.7.1-1.8.7-2.5 1.2l-1.7.9a28 28 0 0 0-7.4 5.2c-3.4 3.6-3.3 6.4-3.3-50.8 0-41.5.2-51 .7-51.5a18 18 0 0 1 5-1 145.5 145.5 0 0 1 15.8-1.8c5.7-.4 11.3-1 12.4-1.3 1-.2 5.1-.7 9.1-1 4-.2 10.6-.8 14.5-1.4 4-.5 8.5-1 10.2-1 1.7 0 6.5-.4 10.6-1 4.2-.6 10.7-1.2 14.6-1.5 3.9-.2 9.2-.8 12-1.2 2.7-.4 6.5-.8 8.4-.8 1.9 0 5.5-.3 8-.7l4.4-.6-2.4-1c-3.5-1.6-5.7-2-13.2-2.6-3.7-.3-7.5-.7-8.5-1-1-.3-5-.8-9.1-1-4.1-.3-9-.9-10.8-1.3-1.8-.3-6.4-.9-10.2-1.2a121 121 0 0 1-10.5-1.2c-2-.4-6.7-1-10.4-1.3-3.7-.3-8.3-.8-10.2-1.2-1.9-.4-6.7-1-10.7-1.2-4-.3-8-.8-8.7-1-.8-.3-5-.7-9.2-1-9.4-.7-10.3-1-11.1-2.5-.8-1.6-1-98.7-.1-100.2.5-1 .9-.9 2.6.6m46.7 245.7c-4 .3-7.7.9-8 1.2-.4.2-2 .8-3.8 1.2a17 17 0 0 0-3.6 1.1c-.3.3-1.4.7-2.5 1l-2.7 1.3c-.4.4-1.6 1-2.6 1.4-1 .5-1.9 1-1.9 1.3A42.8 42.8 0 0 0 52 498.8c-.7.9-1.5 2-1.7 2.7-.1.6-.5 1.1-.7 1.1-.2 0-.7.7-1 1.6-.4.9-1.1 2.2-1.6 2.8-.5.7-.9 1.7-.9 2.3 0 .6-.4 1.6-1 2.3-.4.6-1 2-1.2 3.1-.2 1.1-.8 2.9-1.3 3.9s-1 2.8-1 3.9c0 1-.4 3.2-1 4.8-2.4 6.6-2.7 59.3-.3 63.8.4.9 1 3.1 1.1 5 .2 1.9.8 4.2 1.2 5.1.5 1 1 2.6 1.3 3.5.2 1 .6 2.2 1 2.8.4.6.7 1.4.7 1.7a55.3 55.3 0 0 0 16.6 22.5A61.2 61.2 0 0 0 86 642l3.5 1H313l3.2-1c1.8-.6 4.4-1.2 5.8-1.4 1.4-.1 2.9-.6 3.2-1 .3-.4 1.6-1 2.8-1.3 1.2-.3 2.2-.7 2.4-1 .1-.2 1.2-.8 2.3-1.4 3.2-1.5 4.5-2.3 5-3a34.8 34.8 0 0 0 9.4-8.6c.3-.6 1.5-2.2 2.7-3.6a16 16 0 0 0 2.1-3c0-.3.5-1 1-1.6.6-.6 1-1.5 1-2a6 6 0 0 1 1.2-2.4 10 10 0 0 0 1.5-3.4c.2-1 .6-2 1-2.4.4-.4.8-1.7 1-3 .2-1.3.7-3 1.2-3.9.5-.8 1-2.9 1.2-4.5.2-1.7.7-4 1.2-5.2 1.3-3.2 1.3-55.6 0-58.7-.4-1.1-1-3.3-1-5-.3-1.6-.8-4-1.3-5.2-.6-1.2-1.1-3-1.3-4-.1-1-.6-2.2-1-2.6-.4-.4-1-1.8-1.2-3-.3-1.4-.8-2.7-1.1-3.1a2223.2 2223.2 0 0 1-3.3-5.5c-.6-1.2-1.3-2-1.5-2a61.1 61.1 0 0 0-15-15 65.5 65.5 0 0 0-23.2-8.5c-8.2-.8-211.3-.8-220.8 0m226 1.7a62.8 62.8 0 0 1 18.8 8.3c3.4 0 19.6 21 19.6 25 0 .5.5 2 1.2 3.2.7 1.3 1.3 2.8 1.3 3.4 0 .6.4 2.3 1 3.7a27 27 0 0 1 1.2 5.3c.2 1.6.7 4.2 1.1 5.8 1 3.8 1.5 42 .7 48.4-1 6.9-2 12.9-3.1 16.3a68.2 68.2 0 0 1-11.6 24.3 53.5 53.5 0 0 1-10.2 10c-1.1 1-6.7 4-12.9 6.7-1.2.6-3.9 1.3-5.8 1.6-2 .3-4 .7-4.5 1-.4.2-1.8.5-3.1.7-3.6.5-217.4.4-220.2-.2a89.9 89.9 0 0 1-15.2-3.7 46 46 0 0 1-24.3-19.5c0-.3-.5-1-1.2-1.6-.7-.6-1.2-1.5-1.2-2 0-.4-.6-1.6-1.3-2.7-.7-1.1-1.2-2.3-1.2-2.7 0-.4-.6-1.9-1.2-3.3-.7-1.3-1.3-2.8-1.3-3.2 0-.5-.4-2.1-1-3.7-.6-1.7-1.2-4.3-1.4-6l-1.3-7.1c-1.2-6-1.2-46.6 0-53l1.5-8.5c.4-2.3 1-4.7 1.4-5.4.4-.7.8-2.2 1-3.3.2-1 .8-2.6 1.3-3.5.6-.8 1-2 1-2.4 0-.5 1.1-2.8 2.5-5a30.3 30.3 0 0 0 2.8-5.2c.2 0 1.2-1.2 2.1-2.5a46 46 0 0 1 26.8-17.8 28 28 0 0 0 4.2-1.3c3.5-1.4 11.5-1.5 121.2-1.5H314l3.6 1.4m-224.7 75c-.8.4-2 .7-2.6.7-4.3.1-4.3 7.4 0 10.7l1.5 1 103 .1c115.4.2 115 .2 117.4-1.9 3-2.4 2-9.8-1.1-9.9-.3 0-1.2-.3-2-.7-2-1-213.8-1-216.2 0m217.2 1.3c2.7 1 4.9 7 2.7 7.8-.3 0-1.2.7-1.9 1.4l-1.3 1.2H92.2l-1.5-1.2c-3.5-2.5-3.5-8.3 0-9l1.7-.5c1.4-.5 216.4-.2 217.7.3m45.9 88.9a85.1 85.1 0 0 1-9.8 9c-.3.3-1.3 1-2.2 1.4a61.5 61.5 0 0 0-8 4l-3.7 1.7c-1 .5-2.8 1-4 1.3a34 34 0 0 1-10.2 2.2c-9.7 1-9-.3-9.3 19.3l-.3 16.1-34.9.4c-92 1-201.8.8-205.4-.2-2-.5-4.3-1-5.3-1s-2.2-.2-2.6-.6c-.4-.4-1.8-1-3.1-1.3a9.6 9.6 0 0 1-3.2-1.3 23.8 23.8 0 0 0-5.8-3.6c-.3 0-.8-.5-1.1-1-.3-.6-.9-1-1.3-1s-1-.5-1.3-1c-.7-1.2-2.6-1.3-3-.2-.8 2-.4 108.6.4 109.4 1 1 1.5 1 2.6-.3.4-.6 1.6-1.7 2.6-2.3l2.4-1.9c.3-.3.8-.6 1-.6.3 0 1-.5 1.4-1a8 8 0 0 1 3.1-1.5 10 10 0 0 0 3-1.2c.4-.4 1.7-.8 3-1 1.2-.2 2.9-.8 3.7-1.2a8870 8870 0 0 1 272.1-.1l4.7 1.3c4 .7 12.5 5.7 16 9.4 3.9 4.2 3.6 10.5 3.5-77.3 0-89.1.5-81.7-5-75.9m4-1.3c.6 1 .5 153.8 0 154.4-.4.3-1.4-.3-3.2-1.9a26.8 26.8 0 0 0-4.1-3L350 790c-.7-.5-1.6-.9-2-.9-.5 0-1.2-.3-1.5-.7-.4-.5-1.6-1-2.7-1.3l-5.3-1.6-3.2-1.1H67.2l-3.5 1.2a56 56 0 0 0-13.8 6c-.7 0-5.8 4-5.8 4.4 0 .8-1.8.6-2.2-.3-.1-.4-.3-24.4-.3-53.4 0-59.4-.2-55.8 3.6-52.8 3 2.4 6 4.4 6.7 4.4.3 0 .9.5 1.4 1 .4.5 1.5 1.1 2.4 1.3.8.2 2.3.7 3.3 1.2s2.8 1 4.2 1.3c1.4.2 3.1.6 4 1 1.2.7 16.7.8 121.1.7h119.8l.8-1c.8-1 .9-2.6.9-16.9 0-13 .1-15.8.7-16.3 1-.9 5.4-2 10.3-2.5 2.3-.3 5.2-1 6.4-1.5 1.2-.5 2.6-1 3.2-1 .9 0 2.4-.7 9.3-4a43.8 43.8 0 0 0 10.5-7c1.9-1.5 4.6-4 6-5.5 2.4-2.7 3.3-3.3 3.9-2.4m-4.5 162c-5.9 5.4-6.2 5.6-6.9 5.6-.3 0-1.1.4-1.8 1-.6.4-1.7 1-2.4 1.2l-2.6 1.3c-.7.6-2 1-2.7 1-.8 0-2.3.4-3.3 1-1.4.8-3.5 1.1-8 1.5-3.3.2-7.2.8-8.7 1.2a83 83 0 0 1-10.4 1.2c-4.2.3-8 .8-8.4 1-.4.2-2.7.6-5 .7-8.5.7-14.6 1.4-15.6 1.8-.5.3-4.4.7-8.7 1-4.2.2-8.7.7-9.9 1.1-1.3.5-5.2.9-9.4 1a65 65 0 0 0-11.2 1.4 37 37 0 0 1-6.9 1c-4.6 0-12.5.9-13.7 1.5-.6.3-4.6.7-9 1-4.7.2-8.9.7-10.1 1.1-1.1.4-5 .9-8.7 1-3.6.3-8 .7-9.8 1.1-1.8.4-7.1 1-12 1.4-4.8.4-9.1 1-9.7 1.2-.5.3-4.3.8-8.3 1-8 .6-10 .9-12.4 1.6-.8.2-5 .6-9.5 1-4.5.2-8.5.7-9 1-.6.2-4.4.7-8.4 1-4 .3-8.7.8-10.5 1.2-1.8.4-6.8 1-11.1 1.2-5.1.4-8.8.9-10.2 1.4-3.3 1.2-19 1.2-20.9 0-.7-.5-2.3-1-3.7-1.2-1.3-.2-3-.7-3.8-1.2-.7-.5-1.6-1-2-1-.9 0-5.9-3.3-6.4-4.2-.5-.9-2-1-2.8-.1-1 1-.8 117.5.2 118.5.9 1 2.5.4 3-1 .2-.3.6-.7 1-.7.3 0 1.3-.5 2-1.2.9-.7 1.8-1.2 2.1-1.2.3 0 1.2-.5 2-1a13 13 0 0 1 4.2-1.6 21 21 0 0 0 4.3-1.1 77.3 77.3 0 0 1 25.6.2c.8.3 4.8.8 9 1 4.3.2 9.5.8 11.6 1.2 2.1.5 7.3 1 11.4 1.3 4.2.2 8.6.7 9.8 1 3.6.8 8.9 1.4 12.9 1.4 2 0 5.2.4 7.2.8 1.9.4 7.8 1 13.1 1.5a91 91 0 0 1 11 1.2c.8.3 5.4.7 10.2 1 5.6.3 9.6.8 11 1.3 1.5.5 4.7.9 9.4 1 4 .2 8.6.6 10.2 1 1.6.4 7.3 1 12.6 1.4 5.3.4 10.3 1 11.1 1.2.8.3 5 .8 9.5 1.1 11 .7 10.8.7 12.1 1.3.7.3 5.4.8 10.4 1.1 5 .3 10.2.9 11.4 1.2 1.3.4 6.4 1 11.4 1.3 6 .4 9.7.8 10.5 1.3 1 .5 3.1.7 7 .7 3 0 7.6.3 10 .8l10.3 1.4a29 29 0 0 1 9.8 2.5c1 .2 2.5.8 3.4 1.3 1 .5 2 1 2.3 1 .4 0 1.3.4 2.1 1 .8.7 1.9 1.4 2.5 1.6.6.2 1.1.6 1.1.8 0 .3.6.8 1.4 1.2a30 30 0 0 1 4.5 3.8c5.2 5.1 4.8 8.2 4.7-38.5 0-29.9-.2-40-.6-40.3a399 399 0 0 0-44-2.5c-15.7 0-14 .9-14-7.8 0-8.5-2-7.4 15-8.1 7.2-.3 15.2-.7 18-1 2.6-.3 9.2-.6 14.6-.8 5.3-.2 10-.5 10.4-.7.9-.5.7-86.5-.1-87.6-.8-.9-.9-.9-4.7 2.6m4.5-1.3c.6 1 .3 84.9-.3 85.6-.4.5-2 .7-6 .7-12 0-49.7 2-51.6 2.8-.7.3-.8 1.1-.8 7.7 0 9-1.5 8.1 14 8.6 7 .2 16.7.6 21.9 1 5.2.4 12.2.7 15.7.7 4.5 0 6.4.2 6.8.7.6.7 1 76.7.3 78.5-.5 1.6-.7 1.5-3.4-1.3-1.4-1.4-3-2.7-3.9-3-.7-.4-1.4-.8-1.4-1 0-.3-.8-1-1.8-1.5l-4.2-2.4c-1.2-.8-2.8-1.6-3.4-1.8l-4.5-1.5c-3.5-1.3-14-2.9-24-3.7-3.5-.3-8.2-.9-10.4-1.2a108 108 0 0 0-10-1c-3.2-.1-7.6-.6-9.8-1-2.2-.5-7-1-10.8-1.3-3.7-.2-8.6-.8-10.9-1.2-2.3-.4-7.7-1-12.2-1.2-4.4-.3-8.5-.8-9.2-1-.7-.3-4.8-.8-9-1-4.4-.3-9.7-1-11.9-1.3-2.2-.4-7.4-1-11.6-1.2-4.2-.3-9.3-.9-11.2-1.3-1.9-.3-6.6-.9-10.4-1.2-3.8-.2-9.3-.8-12.1-1.2-5-.7-8.6-1.1-30.8-3.3-5.5-.5-11.1-1.2-12.3-1.4-1.3-.3-4.5-.6-7.2-.8a176 176 0 0 1-11.4-1.2c-3.6-.5-8.8-1.1-11.7-1.3a127 127 0 0 1-11.1-1.3 96 96 0 0 0-32.3.3c-5.7 1.8-12.3 5.2-13 6.9-.5 1-2 .2-2.3-1.3-.6-3.3 0-115.3.6-115.9.4-.4 1-.2 2.2 1.1 1 1 2.4 2 3.2 2.4l3.9 1.8a53 53 0 0 0 31 2.7c3.4-.6 9.3-1.3 13.1-1.5 3.8-.3 8.6-.8 10.7-1.2 2-.4 6.6-1 10.1-1.3 3.6-.2 8.3-.8 10.6-1.2 2.3-.4 6.2-.9 8.7-1 2.5-.2 7.2-.8 10.5-1.3 3.2-.5 7.3-1 8.9-1 1.6 0 4.6-.2 6.7-.6 2-.4 6.5-1 9.9-1.3l9.4-1 10.4-1.2c4-.5 9.3-1.1 12-1.6 2.5-.4 7.4-1 10.8-1.2 3.4-.3 7.9-.8 10-1.2 2-.4 6.8-1 10.7-1.3 3.9-.3 7.8-.7 8.7-1 .9-.2 5.7-.8 10.7-1.2 5-.4 9.5-1 10.1-1.2.6-.2 3.5-.6 6.3-.8 2.9-.2 7.5-.6 10.2-1 2.7-.4 7.3-1 10.1-1.2l12.2-1.5 14.1-1.7a80.4 80.4 0 0 0 25.5-5.5 45.8 45.8 0 0 0 13.8-9.3c2.2-2 2.6-2.1 3-1.4m-110.2 90.6-22.3.7c-11.6.3-23.7.7-27 1-3.3.3-16.9.8-30.2 1.2a2553.2 2553.2 0 0 0-55.8 2.2c-24.1 1-22 1.6 8.2 2.5 9.8.3 20.4.7 23.5 1 3.2.2 14.6.7 25.5 1 11 .3 25.3.9 32 1.3 21.1 1.2 52.9 2 53.8 1.2.6-.5.7-1.7.7-5.8 0-6.6-.8-7.3-8.4-6.3m6.7 1c.6.2.7 1.2.7 5.4v5.2h-14a352 352 0 0 1-19.2-.6c-10.5-.9-21.5-1.3-38.9-1.7-9.8-.2-19.7-.5-22-.8-5.3-.5-22.5-1.2-42.4-1.7-17.1-.4-15.7-1 3-1.1 6 0 15.6-.4 21.3-.8 13.3-1 31.2-1.6 50.3-2 8.3-.1 16-.4 17-.7 1.2-.3 8.3-.6 16-.8l14-.5c.4-.3 13.3-.2 14.2 0M73.3 986.9c-1.8.2-3.8.8-4.4 1.2-.7.5-2 .8-2.8.8-1 0-2.2.5-3 1.3-.9.7-1.9 1.2-2.3 1.2-.5 0-1 .4-1.1.8a41.5 41.5 0 0 0-12 13.6 15 15 0 0 0-1.6 3.2c-.4 1-1 2.3-1.3 2.6a8 8 0 0 0-1 3.2c-.1 1.5-.8 3.8-1.3 5.1-1 2.5-2.1 129.7-1.1 135 .4 2.4 1.4 2.4 4 .3a60 60 0 0 1 10.5-6.7c.5 0 1.6-.4 2.4-1 1-.5 3.7-1.3 6.2-1.7 2.5-.4 5-1 5.4-1.2 1.6-.9 260.5-.7 263.5.2 1.3.4 3.8 1 5.6 1.2 1.7.3 3.3.8 3.5 1 .1.3 1.4.8 2.7 1.1 1.4.4 3.8 1.6 5.5 2.8 1.6 1.2 3.1 2.1 3.4 2.1.2 0 1 .6 1.7 1.3 5.7 5.4 5.2 9.8 5.3-45 .2-54.8.2-54.6-2.5-52.6a464.2 464.2 0 0 0-6.5 4.6c-.1 0-.9.4-1.6 1-.7.5-1.9 1-2.5 1.2-.7.2-1.7.7-2.1 1.1-.5.4-2 1-3.4 1.4-1.4.4-2.9 1-3.3 1.3a172 172 0 0 1-36.3.9c-.4-.5-.5-5.3-.6-18.8a142.6 142.6 0 0 0-1.7-27.9c-.2-1.7-.6-3.5-1-4-.3-.6-.8-2-1.1-3.3-.3-1.3-1.4-3.8-2.3-5.5-1-1.7-2.1-3.9-2.5-4.8a47.7 47.7 0 0 0-18.2-15c-.5 0-1.8-.5-3-1l-2.1-1.2h-97c-53.2 0-98.3 0-100 .2m193.6.6c2.1.3 4.1.7 4.4 1a28.7 28.7 0 0 1 11.4 5.5c1.5-.1 12.6 12.8 12.6 14.7 0 .3.6 1.6 1.3 2.8.6 1.3 1.2 2.9 1.2 3.5 0 .6.4 2 1 3.3 1.6 3.6 2 10.5 2.3 30.6.2 16.6.3 19.2 1 20 2.9 3.1 39.6.1 44.5-3.6.3-.3 2-1.3 4-2.3 3.2-1.7 5.3-3.1 7.2-5 1.6-1.4 2.4-.8 2.5 1.7.3 17.2-.1 95.6-.5 96-.4.4-3-1-4.3-2.5a46.7 46.7 0 0 0-24-9.6c-5-.6-261.8-.2-263.7.4-1 .4-3.4 1-5.4 1.3-2 .4-4 1-4.5 1.4-.4.4-1.7 1-2.8 1.3-1.1.3-2.3.9-2.7 1.3-.3.4-.8.7-1.2.7-.3 0-2.2 1.3-4.1 2.8-4 3-4.3 3.1-5 1.7-1.4-2.5-.5-130.1.9-132.7.2-.5.7-2.5 1-4.3.9-5.6 4.6-13 8.9-18A31 31 0 0 1 68.2 989c1-.2 2.2-.6 2.5-.8.3-.3 2-.7 3.7-.9 5-.6 188-.6 192.6 0m-175.3 72.2c-6.9.2-10.5 4.3-8 9l.6 1h173l.5-1.2c1.1-2.4-.5-5.8-3.8-8-1.3-.8-138-1.5-162.3-.8m161 1.3c.4.4 1.1.8 1.7 1 2.3.6 3.7 6 1.7 6.4-1.9.6-171.1.4-171.6-.1-1.1-1.1-.2-5.5 1.3-6.3.8-.5 1.4-1 1.4-1.3 0-.8 164.9-.5 165.5.3"/>
    <path fill="#909090" d="M358 37.2a57 57 0 0 1-10.8 8.4c-.5.5-1.1 1-1.4 1-.4 0-1.5.4-2.6 1-3.9 2-9 3.5-13.8 4a157.7 157.7 0 0 1-17.6 2.2c-4.7.4-9.5 1-10.6 1.2-1.2.3-5.7.8-10.2 1.3-4.5.4-9 1-10 1.2-1 .2-5 .7-9.1 1-4 .3-8.8.8-10.4 1.2-1.7.4-5.6.8-8.7 1-3.1.2-7.3.6-9.2 1-1.9.4-6.4 1-10 1.3-3.6.2-8.3.8-10.4 1.2-2.1.4-5.9.9-8.3 1l-11.4 1.2-13 1.5-9.6 1.2c-2 .4-5.1.8-6.8.8-1.7 0-6 .5-9.4 1-3.5.6-8.9 1.2-12 1.5-3.2.2-7.7.7-10.1 1.1-2.4.5-7.5 1-11.2 1.3-3.8.3-7.5.8-8.2 1-.6.3-5.2.8-10 1.3-4.9.4-9.6 1-10.6 1.2-1 .2-5 .7-9.2 1-4 .3-8.7 1-10.4 1.4a79.3 79.3 0 0 1-23 0c-1-.4-2.7-1-3.7-1.1-1.1-.2-2.5-.7-3.2-1.1-.6-.4-2-1-3-1.4a18 18 0 0 1-6.3-4.2c-1.7-2.1-1.7-.4-1.8 57.6 0 61.2 0 61.1 2.1 58.6.4-.4 1-.7 1.3-.7a34.4 34.4 0 0 1 11.6-5.8 98 98 0 0 1 36 0c2.6.5 8 1 11.8 1.3 3.8.3 7.9.8 9 1 1 .3 6.2.8 11.4 1.2 5.1.4 11 1 13 1.5 2.1.4 6.5.8 9.8 1 3.2.2 7.5.6 9.4 1 1.9.4 6.6 1 10.5 1.2 6.5.5 8.6.7 17.2 2 1.7.3 4.6.5 6.5.5 2 0 4.8.2 6.2.5 4.3.8 9.6 1.5 17 2 3.7.3 7.8.7 9 1 1.1.2 5.3.7 9.2 1 4 .3 9 .8 11.1 1.2 2.2.4 7.3 1 11.3 1.3l8 .7a163 163 0 0 0 16.5 1.7c1.5 0 4.2.4 6 .8 1.8.4 7.6 1 12.9 1.5 5.2.4 10 1 10.6 1.2.6.2 5 .7 9.8 1a85.2 85.2 0 0 1 16.4 2.4c1.7.4 3.5 1 4 1.3.3.3 1.4.8 2.3 1 .9.2 1.7.5 1.9.8.2.3 1.2 1 2.4 1.5 4 1.9 11.8 7.5 12.3 9 0 .3.5.4 1 .2.9-.3 1.3-77.1.5-78.5-.3-.3-3-.7-7.3-.9l-13.7-.8-21.5-1c-18-.5-16.3.3-16.5-8.5-.3-9.7-2.3-9.1 36.3-10.3 21.2-.6 22.4-.7 22.7-2.1.4-1.5.4-83.3 0-84.3s-.8-1-2 .2M360 79c0 46 .2 42.4-3.2 42.4-1.4 0-3.3.3-4.3.6s-11.4.7-25.1.9c-29.8.5-27.4-.4-27.4 11 0 9.4-1.2 8.7 14.1 9 5.7.2 12.8.6 15.6.9 2.9.3 10.8.7 17.6.9l12.4.3.1 38.8c.1 34.2 0 38.8-.6 38.8a.7.7 0 0 1-.7-.8c0-.4-.3-.7-.6-.7s-1.5-1-2.8-2.3a26.1 26.1 0 0 0-7.8-5.2L344 212c-.7-.4-1.7-.7-2.3-.7-.5 0-1.3-.5-1.7-1-.5-.5-1.8-1-3.5-1.2-1.5-.2-3.5-.7-4.4-1.2a26 26 0 0 0-9.2-1.1c-4-.2-7.7-.5-8-.7a57 57 0 0 0-14.3-1.8c-4-.2-8.9-.8-10.6-1.2-1.8-.4-6.6-.9-10.7-1a50 50 0 0 1-8-.8c-.6-.5-8.4-1.3-15.4-1.7-3.1-.1-6.9-.6-8.5-1-1.5-.4-6.4-1-10.7-1.2-4.4-.2-8.6-.7-9.4-1-.9-.3-5.8-.9-11-1.3-5.1-.4-11-1-13-1.4-2.1-.4-6-.8-8.5-.8-4.5 0-6.5-.3-11.4-1.4-1.2-.3-6-.8-10.7-1-4.6-.3-9.6-.8-11.1-1.2-1.5-.4-6-1-10-1.1-4-.2-8.9-.8-11-1.3-2.7-.6-6-1-9.7-1-5.5 0-7.6-.2-12.4-1.4-1.3-.3-5.8-.7-10.2-1a67 67 0 0 1-10.7-1.2c-1.6-.5-5.6-1-10.4-1.1a76 76 0 0 1-10.4-1c-3.4-.8-9.8-.9-11.7-.1-.8.3-3.1.7-5.2 1-2.3.2-4.4.7-5.4 1.4a7 7 0 0 1-2.8 1c-.6 0-1.7.6-2.4 1.2-.8.7-1.7 1.3-2 1.3-.4 0-1 .4-1.3 1a3 3 0 0 1-2 1l-1.1.2-.2-57.1.1-57.1c.6 0 3.8 2 3.8 2.4 0 .3.8.7 1.9 1 1 .4 2.3 1 3 1.6.6.5 1.7.9 2.3.9.7 0 2.1.5 3.3 1.1 3 1.5 25.8 1.7 29.6.2 1.6-.6 4.7-1 10.8-1.3 6-.3 9-.7 10-1.2 1.1-.6 4-1 10.2-1.3 5.7-.3 9-.6 10-1.1 1-.5 4-.9 9.4-1.1 5-.2 8.5-.6 9.6-1 1-.5 5.1-1 10.4-1.3 5.4-.3 9.2-.8 10-1.2.8-.4 4.6-.9 9.8-1.2 4.7-.3 9-.8 9.5-1 .6-.3 4-.8 7.6-1 9.2-.6 12.3-1 13.4-1.6.5-.3 4.7-.7 9.3-1 5.6-.2 9-.7 10.2-1.2 1.2-.5 4.7-.9 10.1-1.2 5.8-.3 8.7-.6 9.8-1.2.9-.4 2.7-.7 4.5-.7 5 0 15-1 16.4-1.8.7-.3 4.4-.7 9-.9 5.7-.2 8.4-.5 9.5-1 1-.6 4-1 10.1-1.3 5.8-.3 9-.7 10.2-1.2 1-.5 4.3-1 10-1.2 4.8-.3 9-.7 9.7-1a25 25 0 0 1 5.9-1c3.5-.3 5.2-.7 6.4-1.5 1-.6 2.2-1 2.8-1 .6 0 1.8-.6 2.7-1.3 1-.7 2-1.2 2.5-1.2.4 0 1.2-.5 1.7-1s1.4-1.1 2-1.3c1-.3 1.4-.6 3.9-2.9a6 6 0 0 1 1.7-1.3c.2 0 1-.6 1.8-1.4.8-.8 1.6-1.4 1.8-1.2.3.1.5 18.6.5 41m-116.5 47a474.4 474.4 0 0 1-36 1.7c-24.7.3-27 .3-31.4 1-3.1.6-9.3.8-41.2 1.5a344.4 344.4 0 0 0-29 1.7c-11 .8-16.7 1.4-17 1.7-1.3 1.3 4.3 1.7 26.2 2 11 .1 21 .5 22 .7 3.3.8 19 1.5 40.7 2 11.2.2 22.4.7 25 1 7 .7 54.6 1.5 55.4.9.8-.7.9-12.4.1-13.8-.6-1.1-3.7-1.2-14.8-.5m14.3 1.5c.8 1.4.7 11.7 0 12.2-1 .6-25 .2-37.4-.6-11-.7-18.4-1-37-1.5-22.6-.5-27.5-.7-30.4-1.2-1.6-.2-13.2-.7-25.8-1-36.7-.8-38-1.2-11.7-3l14.5-1c3.6-.2 15.5-.7 26.2-1 10.8-.2 25.2-.8 32-1.2 6.8-.4 22.7-1 35.2-1.2 12.6-.4 25-.8 27.5-1l5.6-.4c.4 0 1 .3 1.3.9m-215.3 103c-1 1.6-.4 100 .6 100.7 1 .8 3.2 1.1 16.5 2.3a77.8 77.8 0 0 0 13 1.6l10.8 1.3c1.7.4 6.2 1 9.9 1.2 3.7.3 8.5.9 10.6 1.3 2.2.4 7 1 10.5 1.2 3.5.3 8 .8 9.9 1.2 1.9.5 4.9.8 6.7.8 1.7 0 5.5.4 8.4.8 6.8 1 11.4 1.5 18 2.2 5 .4 10.7 2 10.7 3 0 .5-3 1-8.9 1.2-2.9.2-8.8.7-13.1 1.2a453 453 0 0 1-14.4 1.5c-3.5.3-8.8.8-11.6 1.2-3 .5-6.8.8-8.7.8-2 0-7.5.6-12.4 1.2-5 .7-10.5 1.3-12.4 1.3-2 0-4.8.2-6.5.5-5.6 1-15.3 2-18.6 2-1.8 0-5 .3-7.2.7-2.1.4-5.5.8-7.4 1-2 .2-3.8.5-4.1.7-.5.3-1 89.9-.6 102.3 0 1.8 1 1.7 3.3-.5a46 46 0 0 1 21.8-10l5.4-1H329l5.7 1a52.6 52.6 0 0 1 12 3.4c.3 0 1.4.6 2.3 1.2 1 .7 1.9 1.3 2.1 1.3.5 0 3.2 1.9 6 4.2 1.3 1 2.5 1.7 2.7 1.5.6-.5.8-72.2.2-72.7-.2-.3-30.7-.6-69.5-.6-64.5-.2-73.5-.4-74-1.3-.2-.2 1.7-.7 4-1a163.7 163.7 0 0 0 15.3-2.5l9.7-1.6c8.6-1.6 15.6-2.8 18-3.1l7-1.2c2.4-.5 6-1.1 7.9-1.3 1.9-.2 5-.7 7-1.2 1.8-.5 5.1-1 7.1-1.2 2-.1 5.1-.6 6.7-1a50 50 0 0 1 6.5-1.3c1.9-.2 6-.8 9.1-1.4 8.8-1.7 10.3-2 16-2.8 2.8-.4 6.6-1.1 8.3-1.5l8.7-1.5c7.3-1 11.5-1.8 12.1-2.5.8-.7.5-34.6-.2-35.4-.3-.3-3.1-.7-6.2-1a49 49 0 0 1-7.7-1.2c-1-.4-4.2-1-7-1.3a59 59 0 0 1-7.2-1.2c-1.2-.3-3.8-.8-5.7-1l-6.3-1c-1.6-.5-5.4-1-8.4-1.5-3-.3-6.1-.9-6.9-1.1a45 45 0 0 0-6.4-1.1c-2.8-.3-6.9-1-9-1.5-2.3-.5-4.8-1-5.7-1-.9 0-3.3-.3-5.4-.8-3.4-.7-7-1.3-19.2-3.2l-7.2-1.2-9-1.5c-2.8-.4-6.5-1-8.1-1.4-1.6-.4-4.5-.9-6.4-1-2-.2-4.5-.6-5.7-1l-2.3-.5 1.8-.7c1.5-.7 9.2-.8 69.8-1 53.3 0 68.2-.2 68.5-.7.6-.8.5-72.3 0-73.2-.4-.5-1-.3-2.9 1-7.3 5.4-10.5 7-16.2 8.6-1.4.4-3.2 1-4 1.4-1.8.8-261.6 1.2-267.3.4-6.7-1-19.6-5.7-20.4-7.6 0-.2-1-.8-2-1.3s-2.2-1.4-2.7-2c-1-1-1.6-1.3-2-.6m4 3c.3 0 1.2.6 1.8 1.3.6.7 1.4 1.2 1.9 1.2.4 0 1.2.5 1.7 1s1.5 1.1 2.3 1.3c.8.2 2 .7 2.4 1.2.5.5 2 1 3.3 1.2 1.3.2 3 .8 3.9 1.2 2.3 1.3 273.5 1.3 275.4 0 .7-.5 2.1-1 3.2-1.2 1-.1 2.5-.7 3.2-1.1.7-.5 2.2-1.2 3.3-1.5 1.2-.3 2.1-.8 2.1-1 0-.3.8-.9 1.8-1.3s1.7-1 1.7-1.2c0-.3.5-.7 1.2-.8.6-.2 1.7-.9 2.3-1.5.6-.7 1.3-1 1.5-1 .5.4.6 70.1.2 71.4-.3.7-7.2.7-73.1.7-48 0-73 .2-73.1.5-.2.3.1.5.7.5.5 0 1.7.7 2.6 1.5 1.8 1.6 2.5 1.8 9 2.2 2.5.2 5 .7 5.9 1.1 1 .5 3.6 1 7 1.2 3.7.2 6 .6 7.1 1.2 1.1.5 3.3.9 6.7 1 3.3.3 6 .7 7.3 1.3 1.4.5 4.3 1 7.5 1.2 2.8.2 5.6.7 6.2 1 .5.4 3.5 1 6.7 1.2 3 .3 6.4.9 7.2 1.3 1 .4 3.9.8 7 1 3 .2 5.8.6 6.4 1 1.1.7 7.9 1.7 11.5 1.7 1.3 0 2.6.3 3 .7.5.5 2.8 1 6 1.2 3 .3 6.3.9 7.6 1.3 1.3.4 4.5 1 7.1 1.2 2.7.3 5.9.8 7.1 1.2 1.2.4 4.1.9 6.4 1 4.9.5 9.5 1.6 10 2.4.3.4.4 8 .4 17v16.5l-3.6.3c-2 .2-4.3.7-5 1.1-1 .5-3.9 1-7.4 1.2-3.8.3-6.2.7-7 1.2-.8.5-3 .9-6.3 1-3 .3-6 .8-7.3 1.3-1.3.4-4.5 1-7.2 1.2-3 .2-5.7.7-7 1.2-1.2.6-3.8 1-6.9 1.2-2.9.2-5.4.6-6 1-.6.5-3.6 1-7.1 1.3-3.4.3-6.7.8-7.4 1.2-.7.4-4 1-7.2 1.2-3.2.3-6.1.8-6.5 1-.3.3-3 .8-5.8 1-5.8.6-7.8 1-8.6 1.6-.3.2-2.9.6-5.8.9-2.9.2-6 .8-6.9 1.2-.9.4-3.6.9-6 1-2.5.2-5.4.7-6.5 1.2-1.1.4-4.4.9-7.2 1.1-7.6.6-9.7 1.6-6.4 3 1.4.6 14.7.7 73.2.9l71.5.1v70.8l-1.2-.3c-.6-.2-1.4-.7-1.7-1.2-.4-.5-1-1-1.3-1-.4 0-1.3-.5-2-1.2-.7-.6-1.6-1.2-2-1.2-.3 0-1-.3-1.3-.7-.3-.5-1.7-1.1-3-1.5a8 8 0 0 1-3-1.3c-.1-.3-1.7-.7-3.6-1-1.8-.3-3.9-.9-4.6-1.3-2-1.4-266.7-1.4-269 0-.9.4-3 1-4.7 1.3-1.7.3-3.5.8-4 1.2-.4.4-1.5.8-2.4 1a8 8 0 0 0-3 1.3c-.6.5-1.5 1-1.8 1-.6 0-2.1 1.1-4.5 3.3-.7.7-1.4 1.2-1.7 1.2-.2 0-.7.3-1 .8-1 1.8-1-1.4-.9-51.2l.2-50.5 6.2-.3c3.4-.2 7-.7 8.1-1 1.3-.6 5.3-1 11.2-1.2 5.5-.2 10-.6 11.4-1 1.3-.5 6.4-1 11.9-1.3 5.9-.3 10.4-.7 11.6-1.2a69 69 0 0 1 12-1.2c6.4-.3 10.7-.7 12-1.2 1.2-.4 3.7-.8 5.5-.8 5.1 0 16.5-1 17.5-1.5.5-.3 5.3-.7 10.7-1 13.2-.7 14.5-1.3 8.3-3.8a23.5 23.5 0 0 0-10.5-1.9 78 78 0 0 1-10.9-1.2c-2.1-.5-6.7-1-10.1-1.2-3.4-.2-8.3-.8-10.8-1.3s-6.5-1-8.9-1a46 46 0 0 1-6.6-.5l-6-1.2c-2-.4-5.9-.7-8.6-.7-3.2 0-6.3-.4-9-1-2.4-.7-6.3-1.2-10.6-1.3a45 45 0 0 1-8.9-1c-1.2-.5-6.1-1.1-10.9-1.5-9.3-.7-14-1.4-14.5-2.4-.4-.7-.5-98.1 0-98.6.1-.2.8.2 1.4 1 .6.6 1.5 1.2 2 1.2M87.6 478a107 107 0 0 0-8.6 2.3c-5.5 1.9-7 2.5-7.8 3.2-.4.3-1.1.7-1.5.7-.5 0-1.5.5-2.3 1.2a6 6 0 0 1-2 1.2c-.2 0-1 .6-1.6 1.3-.6.7-1.3 1.2-1.6 1.2-.3 0-1 .5-1.6 1.1l-2.2 2.1A70.7 70.7 0 0 0 43 521c-1.1 4.1-2.4 10.5-3 15.9-.7 5.6-.3 47 .5 50l1.3 6.5c.4 2.4 1 5.1 1.5 6.1.4 1 .7 2.3.7 3 0 .6.5 2.2 1.2 3.4.6 1.1 1.3 2.9 1.5 3.8.1.9.7 2.2 1.3 2.9a59 59 0 0 0 15.1 18.7 60.8 60.8 0 0 0 23.4 9.7c6 1.4 14.4 1.5 118 1.4 97-.2 107.6-.2 109.4-1 1-.4 3.3-1 5-1 3-.4 4.3-1 12-4.7a53.2 53.2 0 0 0 26.7-33.4l1.5-4.4c1-2.8 2.5-12 3.2-18.6.8-7.5.2-40.8-.7-44.9-.4-1.8-1-4.5-1.1-6.2-.2-1.6-.8-4-1.2-5.2-.5-1.2-1-3.3-1.3-4.7-.2-1.3-.7-3-1.3-3.6-.5-.7-1-1.7-1-2.3 0-.6-.5-2-1.2-3.2-.6-1.2-1.2-2.4-1.2-2.8 0-.3-.4-1-1-1.5a5.3 5.3 0 0 1-1.3-1.9 9 9 0 0 0-1.4-2.3l-2-2.8c-1.1-1.6-8-8.4-9.7-9.7a55.5 55.5 0 0 0-20.4-9.4l-2.6-1.1-112.3-.1c-92.3 0-112.7 0-115 .6m227.6.8c.7.5 2.5 1 4 1.2 1.4.2 3.2.6 3.8 1 .6.4 2.2 1 3.6 1.5 1.3.4 2.4.9 2.4 1.1 0 .2.9.8 1.9 1.2 5.5 2.5 17.5 13.1 17.5 15.6 0 .3.4.9 1 1.4.5.5 1 1.1 1 1.5 0 .4.5 1.2 1.2 2 .7.7 1.2 1.7 1.2 2.2 0 .5.4 1.4 1 1.9.4.5 1 1.8 1.2 2.8.2 1 .8 2.6 1.3 3.4.5.9 1 2.7 1.2 4.2.2 1.5.8 3.5 1.3 4.5s1 2.7 1 3.9c0 2.7 1 9 1.5 10 .7 1.3.7 40.7 0 42-.3.5-.8 4-1.3 7.8-.4 3.8-1 7-1.2 7.2-.3.2-.8 1.9-1.2 3.8-.4 1.9-1 4-1.4 4.6-.5.7-1 2.2-1.2 3.4-.1 1.1-.6 2.2-1 2.4-.3.2-.8 1.2-1.2 2.3-.3 1-.8 2-1 2.1-.3.2-.8 1.1-1.2 2-.5 1-1.1 2.2-1.5 2.7l-1.7 1.8a53.9 53.9 0 0 1-12.9 12.3 5 5 0 0 0-2.3 1.3c-.5.5-1.2 1-1.7 1s-1.4.4-2 .9c-.7.5-2.2 1.2-3.5 1.5-1.2.3-2.5.9-3 1.2-.3.4-2.9.9-5.6 1.2-2.8.3-5.8 1-6.8 1.3a5952 5952 0 0 1-216.9-.2c-2.4-.5-6-1-8-1.3-2-.1-4.1-.6-4.5-1-.5-.4-1.9-.9-3.2-1.1a8.6 8.6 0 0 1-3.1-1.2c-.5-.4-1.7-1-2.7-1.3-1-.3-2.1-1-2.4-1.3-.4-.4-.9-.7-1.2-.7-.6 0-2.3-1.2-5.7-3.9-2.7-2.1-4.5-4-6.5-6.7l-2.7-3.4c-.4-.4-.8-1-.8-1.2 0-.3-.5-1.2-1.2-1.9s-1.2-1.7-1.2-2.2c0-.5-.5-1.5-1-2.2a10 10 0 0 1-1.5-3.6c-.2-1.3-.7-2.5-1.1-2.8-.5-.2-1-1.5-1.1-3.2-.2-1.6-.8-3.8-1.3-5-.5-1.1-1-3-1-4.2 0-1.2-.3-3.7-.8-5.6-1.5-7-1.7-11.9-1.5-31a104.5 104.5 0 0 1 2.1-27.7c.2-2 .7-4.4 1-5.2.4-.8 1-3 1.3-4.9.3-1.8.8-3.3 1-3.3.2 0 .7-1.3 1.2-2.9a11 11 0 0 1 1.5-3.3c.3-.3.8-1.1 1-1.9a5 5 0 0 1 1.2-2.1c.5-.5 1-1.3 1-1.7 0-.5.5-1.5 1.2-2.3 3.1-3.7 3.7-4.4 3.7-5 0-.3.6-1 1.2-1.4.7-.5 1.3-1.1 1.3-1.5 0-.4.2-.7.5-.7s1.3-.6 2.2-1.4l3.5-2.6 2.7-2c.5-.5 1.7-1 2.6-1.4 1-.3 2-.9 2.4-1.3.3-.3 1.4-.8 2.6-1 1.1-.2 2.7-.7 3.6-1.2.8-.5 2.9-1 4.7-1.2 1.7-.2 3.7-.7 4.2-1 1.8-1.2.5-1.1 115-1 105.6 0 111 0 112.3.8M90.5 553c-5.1 2.7-6.3 6.5-3.1 10.5 2.6 3.3-4.8 3.1 114.4 3l109.4-.2 1.8-1.7c3.1-3 2.4-9.7-1.3-11.1-1-.5-2-1-2.1-1.3-.3-.4-34-.5-108.5-.5H92.9l-2.4 1.3m220.2 1c5.8 3 4.4 10.9-2 11.8-6.3.9-217.3 0-218.6-1-3.5-2.3-4.4-6-2.2-9 2.7-3.2-5.4-3 113.2-3l107.1-.1 2.5 1.2m45.2 91.3a60.4 60.4 0 0 1-25.5 16.2c-1.4.4-3.4 1-4.5 1.5-1 .4-2.8.8-3.8.8-2.4 0-8.3 1.3-10.6 2.2l-1.7.7v16c0 12.1-.2 16.3-.6 16.9-.8 1-240.2 1.5-242.2.5-.6-.4-2.4-.9-4-1.2-5-1-11.5-4.2-17-8.6-2.4-1.9-3-2.2-3.4-1.7-.9 1.4-.8 107 0 107.8.4.3 1 0 1.7-.8l1.9-1.7a51.2 51.2 0 0 0 7-4.7 129.1 129.1 0 0 1 9.6-3.5l3.4-1.2h269.6l3 1c1.6.6 3.7 1.3 4.7 1.5 1 .2 2.3.8 3 1.3a38.7 38.7 0 0 1 11.5 7.4c.9 1.1 1.3 1.3 1.8.8.6-.6.9-152.1.2-153.7-.4-1.2-.7-1-4.1 2.5m4 74.3c0 41.8-.2 76-.4 76s-.8-.4-1.2-.8c-1.7-1.8-3.3-3.1-4.7-3.7a7 7 0 0 1-2-1.2c-.2-.3-1.2-.9-2.2-1.2-1-.3-2.1-.9-2.4-1.2-.3-.4-1.5-.9-2.7-1a7.2 7.2 0 0 1-2.9-1.1c-1-.9-4.5-1.3-15.5-2-4.2-.4-54.8-.5-128.9-.4-129 .1-132.7.2-136 2.3-.7.5-2.2 1-3.4 1.2-1 .1-2.3.6-2.6 1-.3.3-1.2.8-2 1-.7.1-1.7.6-2 1-.3.4-1.3 1.1-2.1 1.5a16 16 0 0 0-4.5 3.5 5 5 0 0 1-1.5 1.1c-.4 0-.4-105.3 0-105.7.2-.2.8 0 1.3.2.9.5 1.5 1 4 3.2.4.4 1 .7 1.2.7.3 0 1.3.6 2.3 1.2 1 .7 2.3 1.4 2.9 1.6.6.2 1.8.7 2.5 1.3.7.5 2 .9 3 .9.9 0 2.5.5 3.6 1.1l2 1.1 121.5.1c119.1.2 121.5.2 122.7-.8l1.1-1 .2-16.3.1-16.4 1.1-.2 3.3-.6a8 8 0 0 0 2.8-.8c.4-.2 2.6-.7 5-1 2.6-.2 4.6-.7 5.1-1.1.5-.4 2-1 3.2-1.1 1.3-.2 2.7-.7 3.2-1.2.4-.4 1.8-1 3-1.4 1-.3 2-.8 2-1 0-.2 1-.7 2-1 1.2-.4 2.2-1 2.3-1.4.2-.3 1-.8 1.7-1 .8-.3 1.5-1 1.5-1.3 0-.5.4-.8 1-.8.5 0 3-2 5.7-4.8a35 35 0 0 1 5.3-4.7c.2 0 .4 34.4.4 76.2m-3.6 85.6a44.1 44.1 0 0 1-16.4 10c-.9.2-2.4.8-3.3 1.3-1 .5-2.4 1-3.3 1-.8 0-5 .5-9.1 1.2-4.3.7-9 1.2-10.7 1.2-1.6 0-5.4.5-8.4 1s-7.7 1-10.4 1.2c-2.8.2-6.7.7-8.7 1-2 .5-7.4 1.1-11.9 1.5-4.5.4-9.4 1-10.9 1.3-1.4.2-4.9.6-7.6.7-2.8.2-6.7.7-8.7 1-2 .4-7.5 1.1-12.1 1.5-4.7.4-9.3 1-10.3 1.2-1 .3-4.6.7-8.1 1-3.6.3-8.4.9-10.7 1.3-2.3.4-7.1 1-10.7 1.2-3.5.3-8.3.8-10.6 1.2-2.3.4-7.2 1-10.8 1.3-3.6.3-7.3.8-8.1 1-.9.2-4.6.7-8.4 1-3.8.2-8.5.8-10.5 1.2-2 .3-5.8.8-8.6 1-2.7.2-6.9.6-9.2 1-2.4.4-7.1 1-10.5 1.2-3.3.3-8 .9-10.5 1.3-2.4.4-7.2 1-10.6 1.2-3.5.3-9 1-12.4 1.5a84 84 0 0 1-25.3.3l-4.7-1.4a9 9 0 0 1-2.8-1.2c-.4-.4-1.5-1-2.5-1.2-.9-.4-2.7-1.5-4-2.6-1.7-1.3-2.6-1.8-3-1.5-.6.7-.7 116 0 116.7.3.3 2-.6 4.9-2.5a32.9 32.9 0 0 1 10.5-4.7 92.8 92.8 0 0 1 31.6 0c2.5.4 8.5 1 13.4 1.4l10.6 1.2c1 .3 5 .8 9 1l10 1c3 .6 16 2 30.3 3.3l11 1.2c1.8.3 7.2.8 11.8 1.2 4.7.4 10.1 1 12.2 1.5 2 .4 6.3.9 9.4 1 3.1.2 8.5.7 11.9 1.3 3.4.5 8.7 1 11.9 1.2 3.1.2 7.2.6 9.1 1 2 .4 6.8 1 10.7 1.3 4 .3 8.5.7 10.2 1l9.4 1c3.5.2 8.5.8 11.1 1.2 2.6.5 8.4 1.1 13 1.5 4.4.4 9.4.9 11 1.2l10.2 1a97 97 0 0 1 28.2 6c.6.5 1.5 1 1.8 1 .3 0 1.7.8 3.2 1.9l4 2.7c.8.4 2.5 1.9 3.8 3.2 1.8 1.9 2.5 2.4 3 2 .8-.7 1-78.5.2-79-.3-.2-6.6-.5-14-.8a236 236 0 0 1-13.9-.7c-.2-.2-6.9-.5-14.8-.8-8-.3-14.9-.7-15.4-1-1.3-.7-1.4-14.3-.1-15.3 1.1-1 21.6-2.4 41-2.8 9.5-.2 16.7-.5 17-.8.7-.5 1-83.7.3-85.3-.4-1.2-.6-1-3.7 1.8m3.4 40.7c0 23-.2 42-.4 42.2-.2.2-10.6.5-23 .8-23.3.4-32.8 1.2-35.3 2.7-1.3.9-1.8 15.6-.5 16.4.6.4 5.1.8 22.2 2 3.1.3 12.8.7 21.4 1l15.8.3V950c0 21.4-.2 38.8-.4 38.8s-1.2-.9-2.3-2c-1-1-2.6-2.2-3.4-2.5a4 4 0 0 1-2-1.5c-.2-.5-.7-.9-1-.9-.4 0-1.3-.5-2-1.2-.8-.7-1.8-1.3-2.2-1.3-.5 0-1.3-.4-1.7-1a6 6 0 0 0-3-1.2c-1.1-.2-2.3-.7-2.6-1-.3-.5-2-1-4-1.3-1.8-.2-3.7-.6-4.1-.9-1.3-.7-8.2-1.5-12.7-1.5-2.2 0-5.3-.3-6.8-.7a109 109 0 0 0-17.5-1.8c-1.7 0-4.4-.3-6-.8-1.6-.4-6.5-1-11-1.2-4.4-.3-9-.8-10.4-1.2-1.3-.4-5.6-.9-9.8-1-4-.2-8.8-.7-10.4-1-1.6-.5-7-1.1-11.9-1.5-5-.3-10.5-1-12.4-1.4a84 84 0 0 0-10.7-1c-4.1-.2-8.3-.6-9.9-1a75 75 0 0 0-10.9-1.3c-4.8-.2-9.2-.7-10.6-1.2-1.6-.5-5.3-.9-10-1-4-.2-8.8-.7-10.6-1.1-1.8-.4-7-1-11.6-1.4-4.7-.4-9.5-.9-10.7-1.2-1.2-.3-6.1-.7-11-1-4.7-.3-9.6-.9-10.8-1.3-1.3-.4-6-.9-10.7-1.2a68 68 0 0 1-9.8-1c-.8-.3-4.3-.7-7.7-1l-9.7-.8c-8.3-.7-19.5.3-21.7 1.8-.7.6-2 1-2.7 1-.8 0-2.2.6-3.1 1.2-1 .7-2 1.3-2.3 1.3-.4 0-1 .4-1.3.9a4 4 0 0 1-1.8 1.3c-.6.2-1 .5-1 .8 0 .3-.3.4-.6.2-.5-.3-.7-114.3-.2-114.9.2-.1 1.1.5 2.1 1.4 1 1 2.5 1.8 3.3 2 .8.2 2 .7 2.5 1.2a7 7 0 0 0 2.7 1.3c1 .1 2.1.6 2.6 1 2.1 1.9 29.4 1.8 34 0 .9-.5 5.3-1 10.2-1.3 4.7-.3 9.5-.8 10.7-1.2a56 56 0 0 1 9-1 76 76 0 0 0 10.7-1.3c2.2-.5 5.7-1 7.7-1 4.3 0 11-.8 12.4-1.5.4-.2 4.8-.7 9.6-1 5.6-.3 9.2-.7 10-1.1a47 47 0 0 1 10.4-1.3c6-.3 9.4-.7 10.2-1.2a31 31 0 0 1 9.2-1c5.9-.2 8.4-.5 9.6-1 1-.7 3.9-1 9.9-1.3 5.6-.3 8.9-.7 10-1.2 1-.5 4.4-.9 10-1.2 5-.3 9.2-.8 10.4-1.3 1-.4 3.3-.7 5-.7 5 0 14-1 15.2-1.6.6-.3 4.6-.7 9-1a43 43 0 0 0 10.2-1.1c1.4-.6 4.9-1 10.1-1.3 4.4-.2 8.6-.7 9.4-1 .9-.3 5.7-.9 10.8-1.3a72.7 72.7 0 0 0 18.7-3.4c.4-.3 1.6-.8 2.6-1 1-.1 2.4-.7 3-1.2.7-.6 1.6-1 2-1 .4 0 1.5-.6 2.6-1.3l2.2-1.2c.3 0 .8-.4 1.1-.9.4-.4 1.2-1.1 2-1.5.6-.3 2-1.5 2.9-2.5 3.2-3.6 3-6 2.8 39.8m-112.9 46.5a50290 50290 0 0 1-39.4 1.5c-10 .2-19.9.6-21.8.9-1.9.3-14.5.7-28 1-15.3.3-26.8.7-30.5 1.2-3.2.4-10.8.8-16.8 1-27.3.7-27.9 3-1 3.7 8.7.2 20.3.8 25.8 1.2 5.4.5 19.6 1 31.4 1.3 11.9.2 25.4.8 30 1.2 4.7.4 15.1.7 23.3.8 13.4 0 21.6.4 33.2 1.3 5.6.4 5.7.2 5.7-7.5 0-8.8-.5-9.1-11.9-7.6m10.8 1.5c.4.4.6 2.4.6 5.8 0 3.5-.2 5.5-.6 5.9-1 1-44.7.2-53.4-1l-13.1-.7c-28-.7-44.3-1.3-50-1.7-3.4-.3-14.3-.7-24.2-1-10-.3-18.7-.7-19.5-.9l-1.5-.4 1.5-.3c.8-.2 7-.6 13.9-.9l20.8-1c4.6-.3 16.5-.7 26.3-1a1271.6 1271.6 0 0 0 51.3-2.1 980 980 0 0 1 20-.6l15.1-.5c.6-.5 12.3-.2 12.8.4M76.1 987.4c-2.2.2-4.6.7-5.5 1.1-.8.5-1.9.8-2.4.8-1.3 0-8.2 3.4-8.2 4a27 27 0 0 0-8 7.4 45.6 45.6 0 0 0-8.8 21.5c-1.4 3.6-2 131.4-.7 132.8.6.5 2.1-.4 6.5-4 .8-.6 1.6-1 1.8-1 .2 0 1.1-.6 2.1-1.3a7 7 0 0 1 2.8-1.2 5 5 0 0 0 2.2-1c.7-.5 2.6-1.1 4-1.4l6.4-1.3c3.2-.7 15.7-.8 134.3-.7l130.7.2 4.8 1.2 6.3 2.1a44 44 0 0 1 12.7 7.4c1.9 1.7 2.4 2 2.8 1.4.2-.5.4-20.5.4-49.2 0-52.5.2-50.4-2.5-47.9-2.4 2.2-3.6 3-8.5 5.6-10 5.2-16 6.2-34.6 6.2h-11.4l-1.2-1.2-1.2-1.2v-17.2c0-19.2-.6-27.8-2-31.6-.6-1.4-1-3-1-3.5 0-.6-.6-2.2-1.3-3.7a40.2 40.2 0 0 0-29-24c-2.3-.5-186.2-.7-191.5-.3m192.6 1.4a21 21 0 0 0 4.8 1.3c1.4.2 2.6.6 2.8 1 .1.3 1 .9 2.1 1.2l2.6 1.3 3.8 3.3a52.1 52.1 0 0 1 7.6 8.5c0 .3.6 1.3 1.2 2.2.7.9 1.4 2.4 1.5 3.4.2 1 .7 1.8 1 2 .4 0 .8 1.3 1 2.7.2 1.4.8 3.6 1.4 4.8 1 2.2 1 3.2 1.3 25.3l.2 23 1.2 1.2 1.1 1.1h14.5a68.8 68.8 0 0 0 26.1-3c.5-.5 1.5-1 2.3-1.1.8-.2 2-.8 2.7-1.4.6-.5 1.6-1 2-1 .6 0 1.6-.5 2.4-1.2a6 6 0 0 1 2-1.2c.2 0 1-.6 1.6-1.2.6-.7 1.4-1.3 1.8-1.3.3 0 .7-.3.8-.7 1.2-3 1.4 1.6 1.4 47 0 26.3-.2 47.9-.4 48-.3.4-1.8-.3-3.2-1.5a18 18 0 0 0-4-3c-.8-.4-1.4-.9-1.4-1.1 0-.2-1.2-.8-2.7-1.2-1.4-.4-3-1.1-3.2-1.5-.4-.4-1.4-.7-2.4-.7s-2.7-.5-3.8-1.1l-2-1.1H201.2c-124.3 0-135.7 0-136.8.8-.7.4-2.4 1-3.8 1.1-1.4.2-2.8.7-3.1 1-.3.4-1.8 1-3.3 1.5-1.4.4-2.7 1-2.7 1.2 0 .2-.7.7-1.7 1.2-1 .4-1.7 1-1.7 1.3 0 .3-.3.5-.7.5-.4 0-1.6.7-2.5 1.6-1.3 1.1-1.8 1.3-2 .8-.8-2 0-127 .8-129.6.5-1.4 1-4.2 1.2-6 .2-2.1.6-3.6 1-3.8.3 0 .9-1.4 1.2-2.8.4-1.5 1-2.9 1.3-3.2.3-.2.8-1.3 1.2-2.4.3-1 .9-2 1.3-2.1.3-.2.6-.6.6-1 0-.2 1.7-2.2 3.7-4.2 5.1-5 6-5.7 8-6.4.9-.3 1.9-.8 2.2-1.2.3-.4 1.7-.8 3.1-1a15 15 0 0 0 4.4-1.3c2.7-1.5 192.4-1.5 195.8 0m-184.2 71.5c-1 .8-1.7 2-1.7 2.4 0 .5-.2 1-.5 1.2-1 .6-.6 5 .5 6.1l1 1.1h86.7c78.1 0 86.8 0 87.5-.8 2.4-2.4.3-8.9-3.6-11-.8-.4-24.1-.6-84.6-.6H86.3l-1.8 1.6m170.4.6c3.3 2.4 4.3 6.3 2.3 8.2-1 1-1.6 1-86.7 1H84.8l-1-1c-2.3-2.5-.5-7.7 3.2-9.4.6-.2 35.8-.4 83.5-.3h82.6l1.8 1.5"/>
    <path fill="#7c7c7c" d="M288.1 56.4a4 4 0 0 0 1.7 0c.5-.2.1-.3-.8-.3-1 0-1.4.1-.9.3m72.4 15.5c0 1 0 1.3.2.8a4 4 0 0 0 0-1.7c-.1-.5-.2 0-.2.9M41.8 83.3c0 2.8.1 4 .2 2.6v-5.2c-.1-1.5-.2-.3-.2 2.6m52.5-4.1a4 4 0 0 0 1.7 0c.5-.2.1-.3-.8-.3-1 0-1.4.1-.9.3m-15.4 2a4 4 0 0 0 1.8 0c.4-.2 0-.3-.9-.3-1 0-1.3.1-.9.2m-8.9.6h3.7c1-.2.2-.2-1.8-.2s-3 0-1.9.2m290.5 11.2c0 1.1 0 1.5.2.9v-2c-.1-.5-.2 0-.2 1.1M41.9 108.1c0 8.5 0 12 .1 7.8a489.5 489.5 0 0 0-.1-7.8m318.6 1.7c0 2.4.1 3.5.2 2.4v-4.5c0-1.3-.2-.4-.2 2m-14.2 13.6h3.5c1-.1.3-.2-1.6-.2-1.9 0-2.7 0-1.9.2m-15 .5h3.6c1-.1.2-.2-1.8-.2s-2.9 0-1.9.2M42 143.2c0 9.7 0 13.7.1 8.8a637.1 637.1 0 0 0-.1-8.8M301 133.1c0 3.5 0 5 .1 3a72 72 0 0 0-.1-3m-65.8-5.4c1 .2 2.3.2 3 0 .7 0 0-.2-1.6-.2-1.7 0-2.3.1-1.4.2m-20.6.5c.8.2 2 .2 2.8 0 .7 0 .1-.2-1.4-.2s-2.1.1-1.4.2m-17 .5c.8.1 2.3.1 3.2 0 .9 0 .1-.2-1.6-.2-1.8 0-2.5.1-1.7.2m-7.6.5h3.7c1 0 .2-.2-1.9-.2-2 0-2.9.1-1.8.2m-8.5.5h3.8c1 0 .1-.2-2-.2-2 0-2.8.1-1.8.2m-14.3.5h4.7c1.3 0 .2-.2-2.4-.2s-3.6.1-2.3.2m-46.9 2c1 .1 2.4.1 3.2 0 1-.1.2-.2-1.6-.2-1.7 0-2.5 0-1.6.2m-8 .5a7 7 0 0 0 2.3 0c.6-.1.1-.2-1-.2-1.3 0-1.8 0-1.2.2m-14.5 1.1c-.9.4-.9.5.3.5.8 0 1.5-.2 1.7-.5.3-.6-.6-.6-2 0m4 .9h3.3c.9-.1.2-.2-1.6-.2s-2.5 0-1.6.2m18.3.5h3c.8-.1 0-.2-1.6-.2-1.7 0-2.3 0-1.4.2m19.6.5h2.7c.8-.1.2-.2-1.3-.2s-2.1 0-1.4.2m16.1 1h3c.7-.2 0-.2-1.6-.2-1.7 0-2.3 0-1.4.2m6.5.5h2c.4-.2 0-.3-1.2-.3-1 0-1.5.1-.8.3m22.5.5h2.7c.8-.2.2-.3-1.3-.3s-2.1.1-1.4.3m14.6.4a7 7 0 0 0 2.3 0c.6 0 0-.2-1.2-.2s-1.7.1-1 .2m14.6.5c.7.2 1.8.2 2.4 0 .6 0 0-.2-1.3-.2-1.4 0-1.9.1-1.1.2m15.3 1h3.7c1 0 .2-.2-1.8-.2s-3 .1-1.9.2m23 .5a7 7 0 0 0 2.3 0c.6 0 .1-.2-1.1-.2-1.2 0-1.7.1-1.1.2m56.5 2a7 7 0 0 0 2.2 0c.6-.1.1-.2-1.1-.2-1.2 0-1.7 0-1.1.2m17.8.5c.9.1 2.3.1 3.2 0 1-.1.2-.2-1.6-.2-1.7 0-2.5.1-1.6.2m9.7.5h2.5c.6-.1 0-.2-1.4-.2s-1.9 0-1.1.2m7.2.5h3c.7-.1 0-.2-1.7-.2-1.6 0-2.2 0-1.3.2m9.6.5a4 4 0 0 0 1.8 0c.4-.1 0-.2-.9-.2-1 0-1.3 0-.9.2M41.8 164.8c0 1.1 0 1.5.2.9v-2c-.1-.5-.2 0-.2 1.1m0 11.4c0 3.8.1 5.3.2 3.3a85 85 0 0 0-.2-3.3m318.7 5.2c0 1 0 1.4.2.9a4 4 0 0 0 0-1.8c-.1-.4-.2 0-.2 1M146 188.6h2c.5-.1 0-.2-1.1-.2s-1.5 0-.9.2m15.6 2a4 4 0 0 0 1.7 0c.5-.1.1-.3-.8-.3-1 0-1.4.2-.9.3m32.2 3a4 4 0 0 0 1.8 0c.4-.2 0-.3-.9-.3-1 0-1.3.1-.9.3m10 1.4a4 4 0 0 0 1.7 0c.5 0 0-.2-.9-.2-1 0-1.3.1-.9.2m28.8 3a4 4 0 0 0 1.7 0c.5-.1.1-.2-.8-.2-1 0-1.4 0-1 .2m24.4 2.5a4 4 0 0 0 1.7 0c.5-.1.1-.2-.9-.2s-1.3 0-.8.2m103.6 12c0 2 .1 3 .2 1.9v-3.7c-.1-1-.2-.2-.2 1.8M42 257.5c0 14.7 0 20.7.1 13.2a1550.7 1550.7 0 0 0-.1-13.2m175-15.3c1 .2 2.4.2 3.3 0 .9 0 .2-.2-1.6-.2s-2.5.1-1.6.2m56.7 0a4 4 0 0 0 1.8 0c.4-.1 0-.2-.9-.2-1 0-1.3.1-.9.2m17.9 0c.7.2 2 .2 2.7 0 .8 0 .1-.2-1.4-.2s-2 .1-1.3.2m29.7 0a4 4 0 0 0 1.7 0c.5-.1.1-.2-.8-.2-1 0-1.4.1-.9.2m39.2 7.1c0 1 0 1.4.2.9a4 4 0 0 0 0-1.7c-.1-.5-.2-.1-.2.8m0 8.4c0 1.3 0 1.8.2 1.2a7 7 0 0 0 0-2.3c-.1-.6-.2 0-.2 1.1m0 21.6c0 1.4 0 1.9.2 1.1V278c-.1-.6-.2 0-.2 1.4M41.8 289.7c0 2.2.1 3 .2 1.9v-4c-.1-1-.2 0-.2 2.1m0 10.4c0 3 .1 4.2.2 2.6v-5.4c-.1-1.5-.2-.2-.2 2.8M286 304.7h4c1-.1 0-.2-2.2-.2-2.1 0-3 .1-1.8.2m7.7 0h3.7c1-.1.2-.2-1.9-.2-2 0-2.9 0-1.8.2m59.5 0h4.4c1.2-.1.1-.2-2.4-.2-2.4 0-3.4.1-2 .2m-311.3 6c0 2.1 0 3 .2 2v-3.8c-.1-1-.2-.2-.2 1.9m0 13.4c0 3.1.1 4.4.2 2.8v-5.7c-.1-1.6-.2-.3-.2 2.9m4 8.2a4 4 0 0 0 1.7 0c.4 0 0-.2-1-.2-.9 0-1.3.1-.8.2m314.8 4.9c0 1 0 1.5.2.9v-2c-.1-.5-.2 0-.2 1.1m-196.7 9.2c1.4.6 2.7 1.2 3 1.5.5.6 1.2.6 1.2 0 0-.4-4.9-2.5-6-2.5-.3 0 .5.5 1.8 1m-100 12.2h2c.5-.1 0-.2-1.1-.2s-1.5.1-.9.2m296.7 4.1c0 1 0 1.4.2.9a4 4 0 0 0 0-1.7c-.1-.5-.2-.1-.2.8M41.8 367c0 3 .1 4.2.2 2.6v-5.4c-.1-1.5-.2-.2-.2 2.8m0 21.8c0 6.9.1 9.7.2 6.4a299.3 299.3 0 0 0-.1-6.4m195 2.6h2.9c.7 0 0-.2-1.6-.2-1.7 0-2.3.1-1.4.2m12.4 0c.9.1 2.3.1 3.2 0 .9 0 .2-.2-1.6-.2s-2.5.1-1.6.2m67.2 0h5.4c1.4 0 .2-.1-2.8-.1s-4.2 0-2.6.1M41.8 409.7c0 2.7.1 3.7.2 2.3v-5c-.1-1.2-.2 0-.2 2.7m0 13.8c0 1.4 0 2 .2 1.2v-2.5c-.1-.6-.2 0-.2 1.3m0 19.4c0 7.3.1 10.4.2 6.8a351.2 351.2 0 0 0-.1-6.8m30.1 9.5a4 4 0 0 0 1.7 0c.5-.1.1-.2-.8-.2-1 0-1.4 0-1 .2M362.6 541c0 1.1 0 1.5.2.9v-2c-.2-.5-.3 0-.2 1.1m-251.6 12c.9.1 2.3.1 3.2 0 1 0 .2-.2-1.6-.2s-2.5.1-1.6.2m75.6 0h3.7c1 0 .2-.2-1.8-.2s-3 .1-2 .2m10.8 0h2c.4-.1 0-.2-1.2-.2-1 0-1.5.1-.8.2M39.3 558c0 1.9.1 2.6.2 1.6V556c0-.9-.2 0-.2 1.9m78.3 8h2.5c.6-.1 0-.2-1.4-.2s-1.9 0-1.1.2m114.5 0a4 4 0 0 0 1.7 0c.5-.1.1-.2-.8-.2-1 0-1.4 0-1 .2m13.2 0a7 7 0 0 0 2.3 0c.6-.1 0-.2-1.2-.2s-1.7 0-1 .2m60.2 0h2.4c.6-.1 0-.2-1.3-.2-1.4 0-1.9 0-1.1.2m-266.2 6.3c0 1.4.1 1.9.2 1.2v-2.5c-.1-.6-.2 0-.2 1.3m.5 9.7c0 1 0 1.4.2.9a4 4 0 0 0 0-1.8c-.1-.4-.2 0-.2 1m69.9 60.7a4 4 0 0 0 1.7 0c.5-.1 0-.2-.9-.2-1 0-1.3.1-.8.2m26.5 0h3c.7 0 0-.2-1.7-.2-1.6 0-2.2.1-1.3.2m80.5 0h2.5c.6 0 0-.2-1.4-.2-1.3 0-1.8.1-1 .2m25 0a7 7 0 0 0 2.2 0c.6 0 .1-.2-1.1-.2-1.3 0-1.8.1-1.1.2m10.9 0h2c.4-.1 0-.2-1.2-.2-1 0-1.4.1-.8.2m-210.8 59c0 6.7 0 9.6.1 6.3a299.3 299.3 0 0 0-.1-6.4m55.8-.9a4 4 0 0 0 1.8 0c.5-.1 0-.2-.9-.2-1 0-1.3 0-.8.2m-56 28.2c0 1 0 1.5.2.8v-2c-.1-.4-.2 0-.2 1.2m0 8.6c0 1.3 0 1.8.2 1.2a7 7 0 0 0 0-2.3c-.1-.6-.2 0-.2 1.1m0 30.5c0 12.8.1 18.2.2 11.8A1159.6 1159.6 0 0 0 42 768m318.6 3.7c0 2 .1 3 .2 2v-3.8c-.1-1-.2-.2-.2 1.8m-45.4 48h2c.5-.2 0-.3-1.1-.2-1.1 0-1.5 0-.9.2M41.8 845.8c0 3.3.1 4.6.2 2.9v-6c-.1-1.5-.2-.1-.2 3.1m93.9-5.3h2c.5-.1 0-.2-1.1-.2s-1.5 0-1 .2m-66.8 7.4c.6.2 1.5.1 2 0 .4-.1 0-.2-1.2-.2-1 0-1.4.1-.8.2m-27 11.3c0 2.5 0 3.6.2 2.4v-4.5c-.1-1.3-.2-.3-.2 2.1m318.7 2.5c0 1.4 0 1.9.2 1.1v-2.5c-.1-.6-.2 0-.2 1.4m-318.7 9.4c0 3 .1 4.2.2 2.6v-5.4c-.1-1.5-.2-.2-.2 2.8m0 10.2c0 1 0 1.3.2.9a4 4 0 0 0 0-1.8c-.1-.5-.2 0-.2.9m0 23.3c0 9.7.1 13.6.2 8.8a637.1 637.1 0 0 0-.1-8.8m297-15h3.2c1-.1.2-.2-1.6-.2s-2.5 0-1.6.2m-12.4.5h4c1-.1 0-.2-2.1-.2-2.2 0-3 0-1.9.2m-25.5 9.6c0 4 0 7.4.2 7.5.2.2.4-2 .3-4.8-.3-9-.4-10-.5-2.7m-54.8-6.2c1 .2 2.4.2 3.2 0 1 0 .2-.2-1.6-.2-1.7 0-2.5.1-1.6.2m-16.3.5a7 7 0 0 0 2.2 0c.6 0 .1-.2-1.1-.2-1.2 0-1.8.1-1.1.2m-18.6.5a4 4 0 0 0 1.7 0c.5-.1.1-.2-.9-.2s-1.3 0-.8.2m-11.7.5h2c.5-.1 0-.2-1.1-.2-1 0-1.5.1-.9.2m-7 .5h3.3c.9 0 .2-.2-1.6-.2s-2.5.1-1.6.2m-9.4.5c.9.1 2.3.1 3.2 0 .9 0 .2-.2-1.6-.2s-2.5.1-1.6.2m-15.9.5h2c.5-.1 0-.2-1.1-.2s-1.5 0-.9.2m-21 .5h3.7c1 0 .1-.2-1.9-.2s-2.9.1-1.9.2m-7.1.5c.8.1 2.3.1 3.2 0 .9-.1.1-.2-1.6-.2-1.8 0-2.5.1-1.6.2m-22.3 1h4.2c1.1-.1.2-.2-2.1-.2-2.4 0-3.3.1-2.1.2m-10 .5h2c.5-.1 0-.2-1-.2-1.2 0-1.6 0-1 .2m-7.4 1.5h3.2c1-.1.2-.2-1.6-.2s-2.5 0-1.6.2m7.4.5h2c.5-.2 0-.3-1-.3-1.2 0-1.6.2-1 .3m22.4.5h3c.7-.1 0-.2-1.7-.2-1.6 0-2.2 0-1.3.2m9.6.5h2.7c.8-.1.2-.2-1.3-.2s-2.1 0-1.4.2m6.7.5h3.2c1-.1.2-.2-1.6-.2s-2.5 0-1.6.2m27.3 1h2c.4-.2 0-.3-1.2-.3-1 0-1.4.1-.8.2m22 .5a4 4 0 0 0 1.8 0c.4 0 0-.2-1-.2-.9 0-1.3.1-.8.2m12.2 1c.8.2 2.3.2 3.2 0 .9 0 .1-.2-1.6-.2-1.8 0-2.5.1-1.6.2m13.6.5h3.7c1 0 .2-.2-1.8-.2s-3 .1-2 .2m17.2.5c.9.1 2.3.1 3.2 0 .9 0 .2-.2-1.6-.2s-2.5.1-1.6.2m73.3 2.5h3.5c1 0 .3-.2-1.6-.2-1.9 0-2.7.1-1.9.2m16.2.5h2.4c.7-.1 0-.2-1.3-.2-1.4 0-1.9 0-1.1.2m6 .5h2.6c.8-.1.2-.2-1.3-.2s-2.1 0-1.4.2m7.5.5h2.4c.6-.1 0-.2-1.3-.2-1.4 0-1.9 0-1.1.2m14.8.5h2.7c.8-.1.2-.2-1.3-.2s-2.1 0-1.4.2M41.8 938.3c0 2.6.1 3.6.2 2.3V936c-.1-1.3-.2-.2-.2 2.4m0 11.9c0 2.6.1 3.6.2 2.3v-4.7c-.1-1.3-.2-.2-.2 2.4m163.8 11.2c.6.2 1.5.2 2 0 .4 0 0-.2-1.2-.2-1 0-1.4.1-.8.2m86.2 9.5h2c.5-.2 0-.3-1.1-.3s-1.5.1-.9.3m68.7 3.3c0 2 .1 2.7.2 1.6v-3.4c-.1-1-.2 0-.2 1.8M102.7 987.2h5.7c1.6 0 .3-.1-2.8-.1-3.2 0-4.4 0-2.9.1m70.6 0h5c1.3 0 .1-.2-2.6-.2s-3.8.1-2.3.2m13 0a4 4 0 0 0 1.8 0c.5-.1.1-.2-.8-.2-1 0-1.4 0-1 .2m30.8 0h4.5c1.2 0 0-.2-2.4-.2s-3.4.1-2 .2m11.8 0h4.7c1.3 0 .3-.2-2.3-.2-2.6 0-3.7.1-2.4.2m72 62.6a673.5 673.5 0 0 0 0 0m-259.3-5.2c0 3.8.1 5.3.2 3.3a85 85 0 0 0-.2-3.3m0 18.3c0 3.3.1 4.6.2 2.9v-6c-.1-1.5-.2-.1-.2 3.1m48-3.3h4.5c1.2-.1.1-.2-2.4-.2-2.4 0-3.3 0-2 .2m40.3 0h3.3c.8-.1.1-.2-1.7-.2-1.7 0-2.5 0-1.6.2m26.3 0h3.5c1-.1.3-.2-1.6-.2-2 0-2.8 0-2 .2m6.3 0a4 4 0 0 0 1.7 0c.5-.2.1-.3-.8-.3-1 0-1.4.1-.9.3m15.4 0h2.5c.6-.1 0-.2-1.4-.2s-1.9 0-1.1.2m7.2 0h2c.4-.2 0-.2-1.2-.2-1 0-1.5 0-.8.2m22.8 0h3c.7-.1 0-.2-1.7-.2-1.6 0-2.2 0-1.3.2m-125.3 7c0 .8.2 1.6.4 1.7.2.2.3-.5.2-1.4-.3-2.1-.6-2.2-.6-.3m-41 9c0 1.5 0 2.1.2 1.4v-2.8c-.1-.7-.2-.1-.2 1.4m0 12.9c0 4 .1 5.5.2 3.6a91.6 91.6 0 0 0-.2-3.6m318.7 5.7c0 2.2.1 3 .2 1.8v-4c-.1-1-.2 0-.2 2.2m-318.7 21.3c0 4 .1 5.7.2 3.6a98.5 98.5 0 0 0-.2-3.6m0 15.9c0 2.7.1 3.7.2 2.3v-5c-.1-1.3-.2 0-.2 2.7m318.7 6.1c0 1 0 1.4.2 1a4 4 0 0 0 0-1.8c-.1-.5-.2-.1-.2.8m-318.7 9.2c0 4.1.1 5.7.2 3.6a98.5 98.5 0 0 0-.2-3.6m52.5-3.3h5.5c1.4-.1.1-.2-2.9-.2s-4.2 0-2.6.2m25.5 0a7 7 0 0 0 2.3 0c.6-.2 0-.3-1.2-.3s-1.7.1-1 .2m13.3 0a7 7 0 0 0 2.2 0c.7 0 .2-.2-1-.2-1.3 0-1.8.1-1.2.2m12.6 0c1.3.2 3.5.2 4.8 0 1.3 0 .2-.1-2.4-.1s-3.6 0-2.4.2m31.5 0a7 7 0 0 0 2.3 0c.6-.2 0-.3-1.2-.3s-1.7.1-1 .2m45.3 0c1.6.2 4 .2 5.4 0 1.5 0 .2-.1-2.8-.1s-4.2 0-2.6.2m11.1 0h2c.5-.2 0-.3-1.1-.3-1 0-1.5.1-.9.2m36.5 0a4 4 0 0 0 1.7 0c.5 0 0-.2-.9-.2-1 0-1.3.1-.8.2M296.5 1143.3c1.3.2 3.4.2 4.5 0l-2.4-.1c-2.4 0-3.4 0-2 .2m18.5 0h3.2c1-.2.2-.2-1.6-.2-1.7 0-2.5 0-1.6.2"/>
  </g>
</svg>
